<svg width="2288" height="498" viewBox="0 0 2288 498" fill="none" xmlns="http://www.w3.org/2000/svg"> <path d="M1263.1 85.8687H1024.9C1027.96 64.4686 1021.85 49.1902 1012.69 33.8988C997.429 18.6205 976.042 9.4509 948.572 9.4509H26.3695C11.0911 6.39004 4.99533 15.5727 11.0911 30.851L41.6219 79.76C44.6698 82.8079 47.7437 85.8687 56.9003 85.8687H75.2266L78.2745 98.0992L108.805 143.934C111.866 150.056 117.962 153.117 127.132 150.056H142.397L166.832 198.952C166.832 202.013 175.989 205.074 194.315 211.17L594.341 321.205L621.824 370.101C624.885 379.271 634.042 388.44 646.259 391.501L1024.91 489.306L1144 388.44L1263.1 489.306L1641.75 391.501C1653.96 388.44 1663.13 379.271 1666.18 370.101L1693.66 321.205L2093.7 211.17C2112.01 205.061 2121.18 202 2121.18 198.952L2145.6 150.056H2160.88C2170.03 153.104 2176.13 150.056 2179.19 143.934L2209.74 98.0992L2212.77 85.8687H2231.09C2240.26 85.8687 2243.32 82.8079 2246.37 79.76L2276.91 30.851C2283.02 15.5727 2276.91 6.39004 2261.63 9.4509H1339.42C1308.88 9.4509 1287.51 18.6205 1275.31 33.8988C1266.16 49.1902 1260.03 64.4686 1263.1 85.8687ZM185.158 208.122L701.225 159.213ZM371.43 260.092L679.838 189.783ZM499.675 296.77L698.164 214.243ZM594.341 324.279L725.66 241.752ZM624.885 379.284L765.348 272.309ZM707.334 406.793L805.048 299.818ZM783.661 425.132L850.844 327.327ZM860.001 446.545L902.749 348.727ZM942.45 467.919L960.776 367.079ZM1024.9 483.223V385.392ZM1143.99 388.453V211.183ZM2102.87 208.122L1583.73 159.213ZM1919.62 260.092L1605.1 189.783ZM1788.33 296.77L1586.79 211.183ZM1693.66 324.279L1562.37 241.752ZM1663.13 379.284L1522.67 272.309ZM1580.68 406.793L1479.9 296.77ZM1504.33 425.132L1434.11 327.327ZM1427.97 446.545L1385.24 348.727ZM1345.55 467.919L1327.21 367.079ZM1263.1 489.306V385.38ZM2160.88 150.056L1583.71 122.547ZM747.035 253.97L777.565 214.243ZM783.661 284.54L832.518 211.183ZM826.422 315.109L878.327 214.243ZM875.279 336.509L927.198 214.243ZM933.293 364.005L985.198 217.291ZM1003.52 382.345L1037.12 214.243ZM1070.71 394.588L1085.97 214.243ZM1540.98 253.97L1510.43 214.243ZM1504.33 284.54L1458.53 214.243ZM1461.59 315.109L1409.66 214.243ZM1412.73 336.509L1357.77 214.243ZM1354.69 364.005L1302.79 217.291ZM1284.48 382.345L1250.88 214.243ZM1217.29 394.588L1202.01 214.243ZM2231.09 85.8687H1263.1ZM127.132 150.056L701.225 122.547ZM56.9003 85.8687H1024.9Z" fill="white" /> <path d="M1263.1 85.8687H1024.9M1263.1 85.8687C1260.03 64.4686 1266.16 49.1902 1275.31 33.8988C1287.51 18.6205 1308.88 9.4509 1339.42 9.4509H2261.63C2276.91 6.39004 2283.02 15.5727 2276.91 30.851L2246.37 79.76C2243.32 82.8079 2240.26 85.8687 2231.09 85.8687M1263.1 85.8687H2231.09M1024.9 85.8687C1027.96 64.4686 1021.85 49.1902 1012.69 33.8988C997.429 18.6205 976.042 9.4509 948.572 9.4509H26.3695C11.0911 6.39004 4.99533 15.5727 11.0911 30.851L41.6219 79.76C44.6698 82.8079 47.7437 85.8687 56.9003 85.8687M1024.9 85.8687H56.9003M56.9003 85.8687H75.2266L78.2745 98.0992L108.805 143.934C111.866 150.056 117.962 153.117 127.132 150.056M127.132 150.056H142.397L166.832 198.952C166.832 202.013 175.989 205.074 194.315 211.17L594.341 321.205L621.824 370.101C624.885 379.271 634.042 388.44 646.259 391.501L1024.91 489.306L1144 388.44L1263.1 489.306M127.132 150.056L701.225 122.547M1263.1 489.306L1641.75 391.501C1653.96 388.44 1663.13 379.271 1666.18 370.101L1693.66 321.205L2093.7 211.17C2112.01 205.061 2121.18 202 2121.18 198.952L2145.6 150.056H2160.88M1263.1 489.306V385.38M2160.88 150.056C2170.03 153.104 2176.13 150.056 2179.19 143.934L2209.74 98.0992L2212.77 85.8687H2231.09M2160.88 150.056L1583.71 122.547M185.158 208.122L701.225 159.213M371.43 260.092L679.838 189.783M499.675 296.77L698.164 214.243M594.341 324.279L725.66 241.752M624.885 379.284L765.348 272.309M707.334 406.793L805.048 299.818M783.661 425.132L850.844 327.327M860.001 446.545L902.749 348.727M942.45 467.919L960.776 367.079M1024.9 483.223V385.392M1143.99 388.453V211.183M2102.87 208.122L1583.73 159.213M1919.62 260.092L1605.1 189.783M1788.33 296.77L1586.79 211.183M1693.66 324.279L1562.37 241.752M1663.13 379.284L1522.67 272.309M1580.68 406.793L1479.9 296.77M1504.33 425.132L1434.11 327.327M1427.97 446.545L1385.24 348.727M1345.55 467.919L1327.21 367.079M747.035 253.97L777.565 214.243M783.661 284.54L832.518 211.183M826.422 315.109L878.327 214.243M875.279 336.509L927.198 214.243M933.293 364.005L985.198 217.291M1003.52 382.345L1037.12 214.243M1070.71 394.588L1085.97 214.243M1540.98 253.97L1510.43 214.243M1504.33 284.54L1458.53 214.243M1461.59 315.109L1409.66 214.243M1412.73 336.509L1357.77 214.243M1354.69 364.005L1302.79 217.291M1284.48 382.345L1250.88 214.243M1217.29 394.588L1202.01 214.243" stroke="#D0D1D3" stroke-width="17.3017" stroke-miterlimit="2.613" stroke-linejoin="round" /> <path fill-rule="evenodd" clip-rule="evenodd" d="M1583.71 211.183V85.8687H701.225V211.183H1583.71Z" fill="black" stroke="#D0D1D3" stroke-width="17.3017" stroke-miterlimit="2.613" stroke-linejoin="round" /> <path d="M560.75 6.40295C609.607 122.56 685.947 214.243 789.77 284.54C896.654 357.897 1015.73 394.588 1143.99 394.588C1272.23 394.588 1388.27 357.897 1495.18 287.6C1547.09 253.983 1589.85 211.183 1629.51 165.334C1669.22 119.486 1699.75 67.5295 1724.2 9.45086" stroke="#D0D1D3" stroke-width="17.3017" stroke-miterlimit="2.613" stroke-linejoin="round" /> <path fill-rule="evenodd" clip-rule="evenodd" d="M761.431 109.5L796.683 190.794H784.413L772.157 160.121H743.04L730.783 190.794H723.131L758.37 109.5H761.431ZM770.626 153.96L756.84 124.83L744.583 153.96H770.626ZM842.647 184.646C838.056 189.238 830.391 192.312 822.726 192.312L812 190.781L804.335 184.633L805.878 175.438H807.409C812 183.116 818.135 187.707 825.787 187.707C830.378 187.707 833.452 186.177 836.513 181.573C839.574 178.499 841.104 173.907 841.104 169.303C841.104 164.699 839.574 161.638 836.513 158.564L824.256 152.43C818.122 150.899 813.53 147.825 812 146.295C807.409 141.703 805.878 137.099 805.878 132.495C805.878 124.83 808.926 120.239 813.53 115.621C818.122 111.03 822.726 109.487 830.391 109.487C838.056 109.487 842.647 111.017 847.252 115.621L844.191 124.83C841.13 117.165 836.526 114.091 828.874 114.091C824.269 114.091 821.208 115.621 819.678 118.695C816.617 120.238 815.087 123.299 815.087 127.891C815.087 132.482 816.617 137.099 819.678 140.16L833.465 144.751C838.056 147.812 842.66 150.886 845.721 152.416C848.782 155.49 850.313 160.082 850.313 166.216C850.313 173.92 847.252 180.042 842.647 184.646ZM917.729 114.091L919.26 118.695L894.747 117.165V190.781H884.021V117.165L857.978 118.695L859.508 114.091L857.978 111.03H919.26L917.729 114.091ZM942.242 178.512C948.377 184.646 956.029 187.707 963.694 187.707C974.42 187.707 983.616 183.116 989.738 173.907C994.329 166.242 997.403 158.564 995.872 150.899C995.872 140.16 994.342 130.952 989.738 124.83C983.603 117.165 975.951 112.56 965.225 112.56C954.499 112.56 946.834 117.165 940.699 124.83C936.108 132.495 933.047 141.704 933.047 152.43C933.047 163.156 936.121 172.377 942.242 178.512ZM920.79 150.912C920.79 138.643 925.382 127.904 933.047 120.239C940.699 112.56 951.425 109.5 963.694 109.5C975.964 109.5 986.677 112.56 994.342 118.695C1003.52 126.36 1008.13 135.569 1008.13 149.369C1008.13 163.168 1003.54 172.377 995.872 180.042C988.207 187.707 977.494 192.312 963.694 192.312C951.438 192.312 940.699 189.238 933.047 181.585C925.395 173.92 920.79 163.168 920.79 150.912ZM1092.39 190.781H1087.8L1032.64 127.891H1031.11V190.781H1024.98V111.03H1029.57L1084.73 170.847V111.03H1092.38L1092.39 190.781ZM1153.69 111.03C1167.46 137.112 1178.21 157.034 1187.41 172.377L1221.13 111.03H1222.65L1231.84 190.781H1221.13L1215 130.964C1201.2 157.034 1190.47 176.981 1185.87 189.238H1184.35L1176.67 176.981L1153.7 130.964L1149.11 190.781H1139.91L1152.18 111.03H1153.69ZM1308.44 190.781H1302.33L1290.08 160.108H1259.43L1248.69 190.781H1239.5L1276.28 109.487H1279.34L1313.06 190.781H1308.44ZM1287 153.96L1274.75 124.83L1262.49 153.96H1287ZM1336.03 115.621V147.825L1351.36 146.295C1355.96 144.764 1359.01 143.234 1362.07 141.703L1366.68 130.964C1366.68 121.769 1362.07 117.165 1352.9 115.621H1336.03ZM1351.35 111.03C1368.2 111.03 1375.87 117.165 1375.87 129.434C1375.87 135.569 1372.81 140.173 1368.2 144.777C1363.6 147.838 1359 149.369 1352.89 150.912L1383.51 190.794H1371.26L1340.63 152.442H1336.03V190.794H1326.83V111.043L1351.35 111.03ZM1409.58 190.781V117.165L1385.06 118.695V111.03H1443.26V118.695L1420.29 117.165V190.781H1409.58ZM1467.8 111.03V190.781H1457.08V111.03H1467.8ZM1558.2 190.781H1553.6L1498.45 127.891H1496.91V190.781H1490.77V111.03H1493.83L1550.52 170.847V111.03H1558.2V190.781Z" fill="white" /> </svg>