<svg width="1293" height="1293" viewBox="0 0 1293 1755" fill="none" xmlns="http://www.w3.org/2000/svg"> <path d="M646.783 157.289C243.09 157.289 2.20239 300.051 2.20239 300.051L7.11319 625.139C7.11319 774.369 55.8658 1409.31 646.776 1754.99C1238.01 1409.31 1286.46 774.576 1286.46 625.107L1291.35 300.045C1291.35 300.045 1050.64 157.289 646.783 157.289Z" fill="#231F20" /> <path d="M1267.11 323.384C1267.11 323.384 1057.12 189.597 646.783 189.597C236.499 189.597 26.4915 323.384 26.4915 323.384L32.9336 625.113C32.9336 743.334 55.5621 1376.63 646.783 1720.31C1238.02 1376.68 1260.61 743.366 1260.61 625.113L1267.11 323.384Z" fill="#FFF200" /> <path d="M1292.98 194.127L646.783 84.293L0.645264 194.127L2.26066 302.552C2.26066 302.552 326.967 161.612 646.783 161.644C966.624 161.644 1291.32 302.552 1291.32 302.552L1292.98 194.127Z" fill="#ED1C24" /> <path d="M0.645264 161.825V123.075L646.834 0.292572L1292.98 123.075V161.851L646.783 42.3057L0.645264 161.825Z" fill="#009A4E" /> <path d="M632.231 239.648C632.231 239.648 631.54 246.646 629.879 250.736C628.38 254.478 624.27 257.062 624.555 259.563C624.82 262.096 627.514 265.036 631.572 267.155C635.63 269.242 637.265 270.864 641.374 271.924C645.199 272.835 650.039 275.691 651.467 272.454C652.856 269.242 650.75 265.21 648.391 261.392C644.346 254.775 642.33 253.179 636.341 244.004C635.068 242.059 634.04 239.907 632.231 239.648ZM601.952 957.91C602.333 956.76 611.955 962.762 616.898 965.709C627.346 971.944 632.082 975.653 641.335 982.651C647.586 987.342 653.656 992.269 659.531 997.422C668.564 1005.18 673.423 1011.81 675.859 1010.24C679.329 1006.02 670.089 993.707 661.902 987C653.929 980.493 645.703 975.136 639.306 970.878C631.139 965.528 630.422 964.229 618.164 956.017C605.028 947.216 593.668 936.186 593.668 936.186L580.855 926.093L560.818 909.17L538.59 888.635L521.745 869.923C521.745 869.923 508.666 853.917 506.592 850.887C504.518 847.798 498.373 837.912 493.249 829.525C488.687 822.023 479.893 810.341 479.053 809.339C474.317 803.569 463.442 805.895 450.855 798.451C435.496 789.418 431.819 781.18 431.819 781.18C431.819 781.18 431.218 779.945 430.675 779.293C430.1 778.588 428.924 777.813 428.924 777.813L420.938 772.159L416.331 769.129C416.331 769.129 412.803 766.247 408.402 764.36C404.034 762.447 394.219 756.742 394.219 756.742L376.682 745.563C376.682 745.563 369.814 740.032 367.52 738.21C365.239 736.414 360.903 733.945 360.903 733.945C360.903 733.945 358.151 732.53 357.311 732.505C356.477 732.446 352.859 732.091 352.859 732.091C352.859 732.091 349.492 731.238 346.048 735.27C342.591 739.302 343.399 737.157 349.008 759.902C351.198 768.935 350.991 800.59 353.376 810.185C356.451 822.598 365.084 838.603 365.969 840.49C366.867 842.345 367.468 849.291 367.468 849.291C367.468 849.291 367.113 854.88 367.72 858.408C370.369 874.737 394.29 863.997 399.556 886.413C404.777 908.55 396.455 930.642 396.455 930.642C396.455 930.642 391.279 941.588 384.055 943.358C376.786 945.064 365.549 929.027 357.408 916C349.389 903.226 342.798 886.464 340.698 881.133C338.579 875.835 337.493 874.659 335.063 870.75C331.471 865.044 328.544 866.039 324.544 857.013C320.525 847.921 324.085 844.27 322.25 836.355C321.236 831.974 320.266 831.502 318.91 825.235C317.559 818.967 315.776 799.136 315.776 799.136L313.243 780.598C313.243 780.598 312.332 772.153 311.201 766.887C307.124 748.381 305.773 730.489 305.773 730.489L305.024 723.161L304.713 715.569C304.713 715.569 304.481 711.892 305.379 708.157C306.29 704.39 308.132 701.276 308.132 701.276C308.132 701.276 311.841 695.008 312.474 693.477C313.107 691.978 320.758 683.119 320.758 683.119C320.758 683.119 324.699 679.856 331.232 675.791C337.745 671.792 343.644 672.115 343.644 672.115C343.644 672.115 345.337 671.908 356.897 673.349C368.502 674.822 392.307 681.116 398.264 682.705C404.209 684.269 411.252 686.763 415.891 689.296C429.118 696.507 433.131 693.444 422.585 685.238C415.51 679.681 413.526 677.206 407.814 671.973C403 667.585 399.207 664.613 395.621 660.529C392.061 656.407 381.761 641.261 381.761 641.261L375.377 631.788C375.377 631.788 371.901 627.963 371.358 627.666C370.576 627.148 369.815 626.598 369.077 626.018C369.077 626.018 364.858 626.257 360.457 625.372C356.057 624.551 353.983 630.696 353.983 630.696C353.983 630.696 344.465 648.465 334.786 659.353C319.149 677.006 307.906 689.038 302.129 698.394C294.052 711.427 295.803 725.7 291.635 732.291C289.212 736.175 287.9 736.737 286.576 740.116C282.518 750.351 297.27 755.973 293.903 767.332C288.534 785.341 246.327 803.168 240.725 800.17C234.941 797.107 239.678 772.779 241.636 764.864C243.626 756.949 249.525 745.331 250.068 744.71C250.611 744.122 252.026 741.389 252.485 739.063C252.937 736.711 253.086 731.471 253.383 728.498C253.661 725.584 254.843 720.938 254.843 720.938C254.843 720.938 255.05 719.995 258.752 711.847C262.494 703.725 276.231 684.805 286.117 666.745C292.533 654.946 295.267 647.793 301.741 636.053C307.744 625.165 317.953 608.662 317.953 608.662C317.953 608.662 322.295 600.217 324.337 597.07C326.399 593.859 330.708 587.746 334.734 581.769C338.811 575.799 339.826 571.295 345.163 566.378C349.596 562.287 352.568 560.11 358.332 558.23C366.913 555.406 372.793 556.963 381.503 559.38C390.626 561.88 396.862 566.029 402.787 570.972C406.534 574.145 409.996 577.642 413.132 581.42L416.001 585.659L417.765 586.719L423.309 590.247L435.935 598.634C435.935 598.634 465.884 618.994 467.519 620.08C469.135 621.139 474.478 625.553 475.583 625.934C476.669 626.231 484.662 617.605 500.299 606.782C518.41 594.253 524.853 595.216 530.778 591.953C536.723 588.689 539.191 585.95 543.83 581.304C550.848 574.241 550.88 570.532 558.866 560.711C566.885 550.883 574.413 545.41 574.413 545.41C574.413 545.41 575.498 544.324 589.798 528.196C604.11 512.042 610.41 499.83 610.41 499.83L618.28 484.148C618.28 484.148 629.64 459.755 633.284 450.102C636.922 440.422 636.922 437.159 636.922 437.159C636.922 437.159 637.465 434.659 634.673 429.748C631.863 424.83 628.949 427.066 623.553 428.184C613.105 430.394 606.798 427.687 596.292 425.864C586.638 424.217 581.611 421.393 571.97 419.745C562.201 418.098 556.482 416.54 546.693 417.477C544.671 417.715 542.673 418.128 540.722 418.711C535.236 420.566 533.679 420.979 529.57 423.331C524.82 425.599 521.686 426.33 516.401 426.446C512.763 426.504 510.527 426.62 507.161 425.302C504.835 424.417 503.542 423.739 501.669 422.091C500.687 421.228 499.826 420.237 499.11 419.144C499.019 418.085 498.683 418.143 499.685 416.495C500.641 414.789 501.908 414.492 501.908 414.492L506.411 413.374C506.411 413.374 512.737 411.694 513.267 411.578C513.842 411.429 519.871 409.458 522.52 408.631C525.214 407.778 528.129 406.247 528.129 406.247C528.129 406.247 529.789 403.688 529.13 402.157C528.381 400.477 524.794 400.361 524.794 400.361C524.794 400.361 519.735 402.157 519.16 402.273L510.624 404.981C510.624 404.981 504.298 406.363 499.413 407.513C494.516 408.631 487.485 409.187 487.485 409.187L485.379 408.631C485.379 408.631 482.936 407.016 482.581 405.401C482.245 403.901 482.006 402.751 481.728 401.078C480.714 394.868 479.473 391.075 480.888 384.95C481.489 382.391 482.096 381.008 483.214 378.598C484.138 376.569 484.746 375.451 485.948 373.564L489.857 367.271L497.152 356.474C499.24 354.221 501.704 352.349 504.434 350.942C509.112 348.326 511.82 347.563 517.603 346.91C523.341 346.322 524.09 346.381 532.199 344.558C540.335 342.736 546.085 339.499 546.085 339.499C546.085 339.499 565.489 332.378 577.334 326.557C589.707 320.496 595.161 313.963 608.019 308.929C612.627 307.084 617.363 305.579 622.19 304.426C622.509 304.246 622.786 304.001 623.004 303.707C623.223 303.414 623.376 303.077 623.456 302.72C624.031 300.665 620.839 299.689 618.688 299.928C616.788 300.103 612.362 302.132 611.347 299.954C610.552 298.216 615.405 297.221 615.405 297.221C615.405 297.221 617.673 296.161 617.699 294.869C617.783 292.956 614.416 294.191 612.93 294.042C605.428 293.221 604.827 291.839 599.613 290.54C593.436 289.008 590.095 287.128 583.769 286.889C578.109 286.624 572.823 287.858 569.341 288.711C565.813 289.564 565.696 286.126 567.073 285.48C576.959 280.86 577.166 280.447 584.125 280.156C587.95 280.007 593.287 280.86 593.862 281.125C594.437 281.422 602.055 281.041 604.046 279.07C606.004 277.126 597.746 277.216 593.862 275.685C590.302 274.244 584.816 273.862 584.945 271.478C585.094 269.094 587.769 270.393 589.643 269.947C591.995 269.391 593.41 269.417 595.82 269.061C600.188 268.473 600.589 268.118 607.057 267.53C613.505 266.974 622.758 269.649 622.758 269.649C622.758 269.649 632.425 273.972 637.187 276.208C641.949 278.476 647.706 279.594 647.706 279.594C647.706 279.594 654.407 280.595 659.602 277.326C664.823 274.089 661.89 272.027 660.016 269.087C658.239 266.289 655.977 262.354 659.324 254.762C662.277 248.145 663.776 240.495 664.662 239.784C665.644 238.931 669.811 244.818 672.422 247.286C681.875 256.113 694.469 260.526 706.255 279.064C707.179 280.563 711.644 278.179 725.362 280.272C739.092 282.392 751.02 297.098 754.096 300.6C757.191 304.103 761.243 303.98 761.243 303.98L767.84 304.833L791.793 305.24C791.793 305.24 802.674 303.327 808.935 305.679C813.323 307.295 827.919 317.064 821.264 320.806C816.599 323.39 812.211 317.685 808.024 317.394C803.042 317.071 800.846 317.982 796.419 319.1C787.128 321.452 767.187 327.487 774.418 329.929C775.012 330.104 775.949 330.311 775.949 330.311L779.593 330.899C779.593 330.899 788.349 332.902 793.589 334.989C801.627 338.168 805.336 341.664 812.812 345.993C816.961 348.435 818.854 350.878 823.435 352.228C827.674 353.462 830.349 352.202 834.678 352.965C840.358 353.966 843.563 355.084 848.739 357.585C856.409 361.32 859.277 365.791 866.217 370.767C869.629 373.267 872.524 373.681 875.102 377.034C875.696 377.797 876.226 378.152 876.465 379.063C877.409 382.152 871.412 380.33 868.233 379.832C864.725 379.244 863.2 377.506 859.995 376.007C855.226 373.804 852.926 371.271 847.692 370.301C843.867 369.597 841.631 370.185 837.748 370.359C834.013 370.534 831.958 371.122 828.217 371.18C821.768 371.271 818.098 370.676 811.798 369.384C804.742 367.911 801.272 365.119 794.145 363.678C786.268 362.031 772.137 355.233 773.545 361.998C774.224 365.294 781.726 368.033 781.726 368.033C781.726 368.033 786.759 370.831 791.67 372.944C796.594 375.064 799.243 378.268 799.243 378.268L802.622 380.801C802.622 380.801 806.092 385.57 810.596 390.894C815.08 396.251 822.905 396.102 822.905 396.102C822.905 396.102 827.674 396.102 837.948 398.189C848.157 400.309 858.683 406.602 858.683 406.602C858.683 406.602 866.689 412.043 871.277 417.548C875.897 422.989 873.247 425.787 872.692 426.375C872.136 426.931 872.285 426.64 871.729 426.931C871.173 427.195 865.403 420.075 865.403 420.075L861.339 416.547C861.339 416.547 857.268 413.749 852.066 412.043C846.878 410.37 845.211 411.513 845.211 411.513C845.211 411.513 834.142 414.576 824.611 414.311C815.061 414.046 810.002 410.253 810.002 410.253L803.967 406.195C803.967 406.195 794.882 397.666 794.591 401.692C794.378 404.431 798.591 407.462 798.591 407.462C798.591 407.462 801.556 410.434 803.475 412.289C807.113 415.875 808.587 417.703 812.793 421.464C816.993 425.257 819.655 425.257 819.655 425.257C819.655 425.257 821.923 425.787 822.763 425.935C823.584 426.078 825.122 426.523 825.122 426.523C825.122 426.523 826.537 427.053 833.121 429.735C839.712 432.41 846.736 438.148 846.736 438.148C846.736 438.148 847.408 438.736 848.39 438.852C849.385 438.994 851.356 439.938 851.911 440.119C852.48 440.261 854.16 440.261 857.946 440.791C861.72 441.379 860.331 443.763 860.331 443.763L859.626 444.732L856.544 446.819C856.544 446.819 852.48 447.969 849.656 448.086C846.852 448.228 842.943 446.703 842.943 446.703L834.394 443.472C834.394 443.472 825.839 441.236 824.03 440.939C820.419 440.314 816.822 439.618 813.239 438.852C811.126 438.259 809.059 437.512 807.055 436.616C806.06 436.028 804.115 435.615 799.521 433.379C794.875 431.111 793.021 428.468 787.276 426.64C781.545 424.818 778.036 424.436 773.681 427.493C766.276 432.61 784.918 433.437 794.255 438.057C807.934 444.79 815.662 449.798 818.964 457.093C822.233 464.421 825.561 467.096 825.561 467.096C825.561 467.096 835.169 471.948 839.557 477.04C841.909 479.773 842.297 482.074 844.61 484.839C849.934 491.023 860.182 490.726 862.25 495.992C864.195 500.903 853.947 498.699 848.597 498.195C838.943 497.252 836.636 488.458 827.648 484.865C822.589 482.862 819.319 482.836 814.118 481.098C804.703 477.983 800.277 473.887 790.811 470.947C785.105 469.209 774.696 461.623 775.93 467.445C776.246 468.885 777.041 469.945 777.481 470.798C777.888 471.651 780.285 474.707 780.285 474.707C780.285 474.707 783.516 478.946 784.931 480.032C786.32 481.182 792.465 485.802 801.175 490.564C809.885 495.326 817.42 504.45 817.42 504.45C817.42 504.45 820.004 508.159 821.251 510.776C822.531 513.658 821.658 514.543 823.59 518.601C825.58 522.659 826.543 523.428 829.076 525.896C835.428 532.073 842.083 530.839 850.257 534.193C852.435 535.045 852.603 535.427 855.013 537.96C857.371 540.493 854.574 541.61 854.574 541.61C854.574 541.61 845.553 543.878 839.718 543.407C832.12 542.786 828.785 540.493 821.355 536.842C813.95 533.197 809.995 526.607 809.291 526.161C808.593 525.747 806.79 523.777 805.388 522.775C803.973 521.832 800.4 521.037 797.13 520.126C793.899 519.24 791.948 519.098 788.704 518.187C784.246 516.921 779.593 514.95 777.506 514.272C775.387 513.567 770.541 512.682 767.058 514.776C760.002 518.924 777.926 521.773 783.542 527.692C786.391 530.755 787.541 532.868 790.255 535.989C792.31 538.405 793.156 540.111 795.722 542.024C797.486 543.323 800.645 544.673 800.645 544.673C800.645 544.673 804.962 546.676 811.268 550.146C817.62 553.648 825.038 563.476 825.038 563.476L829.509 570.332L832.21 574.274L832.889 576.096L833.858 578.332C833.858 578.332 837.089 582.538 839.473 583.921C841.857 585.329 841.444 586.596 841.444 586.596C841.444 586.596 841.153 587.449 839.473 588.424C837.793 589.426 836.927 588.567 834.562 587.862C832.139 587.19 830.653 584.922 828.546 583.242C826.427 581.536 824.12 577.33 820.256 574.946C816.87 572.917 812.418 572.18 810.712 571.592C809.026 571.036 804.832 568.387 803.146 567.683C801.466 566.979 797.111 565.001 797.111 565.001C797.111 565.001 788.64 560.239 784.052 558.973C779.4 557.706 782.34 560.562 782.34 560.562C782.34 560.562 786.54 567.037 790.526 569.654C795.702 573.098 802.971 576.122 800.626 578.894C799.036 580.748 796.852 580.07 794.468 579.779C790.585 579.365 785.887 574.687 785.887 574.687C785.887 574.687 783.942 573.421 775.251 570.629C766.541 567.799 769.74 572.6 771.717 575.101C773.694 577.634 776.382 579.042 776.382 579.042L782.217 581.692L784.931 582.544C784.931 582.544 787.276 582.958 795.166 584.78C802.991 586.602 807.352 590.369 807.352 590.369C807.352 590.369 811.559 594.343 817.426 598.666C823.371 602.989 829.225 604.139 832.43 604.578C835.661 604.96 835.525 607.228 835.525 607.228C835.525 607.228 835.964 609.315 835.816 610.019C835.667 610.723 834.956 611.286 834.291 611.286C833.548 611.286 833.283 611.55 832.436 611.99C831.616 612.403 828.23 612.959 828.23 612.959C828.23 612.959 819.41 612.668 812.547 611.021C805.666 609.315 799.67 604.572 799.069 604.255C798.539 603.99 792.064 600.488 787.735 599.073C783.354 597.665 776.511 598.253 775.82 598.517C775.116 598.808 772.725 599.222 768.641 600.34C764.59 601.457 769.649 602.989 769.649 602.989L772.589 603.312L779.593 603.842C779.593 603.842 786.733 604.695 792.924 606.963C799.062 609.166 803.01 613.67 807.062 617.734C809.659 620.29 812.533 622.548 815.63 624.467L818.835 626.554L820.54 627.821L820.954 628.939C820.954 628.939 820.825 629.527 820.54 630.205C820.25 630.942 819.28 631.471 819.28 631.471C819.28 631.471 817.723 631.207 817.006 631.207C816.302 631.207 811.746 628.764 808.36 627.265C804.761 625.675 802.971 624.267 799.211 623.356C795.941 622.561 791.638 622.238 790.707 622.503C789.719 622.768 782.553 623.769 777.061 624.183C771.486 624.696 765.872 624.598 760.319 623.892C751.04 622.774 738.776 615.479 737.218 617.534C734.014 621.74 743.835 623.007 748.526 625.714C755.027 629.449 766.296 632.893 766.296 632.893C766.296 632.893 774.482 634.722 779.296 636.951C789.842 641.836 793.04 649.047 801.492 656.697C806.202 660.994 809.911 662.816 816.198 663.728C821.594 664.49 821.523 663.87 830.078 662.196C838.601 660.49 843.847 652.368 846.322 655.308C846.826 655.929 846.632 656.426 846.458 657.279C846.322 658.1 845.624 659.663 845.624 659.663C845.624 659.663 844.655 661.072 843.117 662.603C841.586 664.135 835.68 667.372 832.617 668.638C829.522 669.905 821.936 671.992 812.425 671.701C802.868 671.436 789.551 664.141 789.551 664.141L779.897 660.083C779.897 660.083 775.432 657.964 772.479 656.846C764.48 653.88 759.42 654.139 751.15 651.935C746 650.585 742.73 649.137 738.104 648.168C733.458 647.225 736.055 649.021 736.559 649.732C738.769 652.646 741.612 653.583 745.27 655.321C750.129 657.673 753.534 657.208 758.6 659.237C764.124 661.531 768.964 664.742 772.014 666.681C775.109 668.651 777.364 670.829 780.317 673.976L790.552 682.654C790.552 682.654 792.937 684.624 793.202 685.451C793.492 686.304 794.617 688.391 794.048 691.777C793.492 695.157 790.727 692.779 790.727 692.779L788.013 691.099L785.377 688.566L781.022 685.038C781.022 685.038 777.364 681.684 771.077 678.447C764.771 675.242 757.185 674.389 757.185 674.389C757.185 674.389 750.445 673.388 750.71 675.507C751.014 677.626 752.565 677.775 757.863 679.151C763.188 680.566 766.709 683.209 766.709 683.209C766.709 683.209 772.189 687.299 776.065 691.771C780.039 696.275 781.125 700.597 781.125 700.597C781.125 700.597 783.102 704.248 788.155 709.159C793.189 714.076 795.89 712.396 795.566 714.748C795.302 717.132 793.027 717.572 793.027 717.572C793.027 717.572 791.793 717.43 791.237 717.43C790.707 717.43 789.383 716.725 787.994 716.196C786.617 715.608 781.293 711.957 781.293 711.957C781.293 711.957 772.996 705.25 772.001 704.513C771.058 703.835 763.188 697.948 763.188 697.948C763.188 697.948 758.593 695.008 755.214 693.302C751.846 691.68 748.378 690.275 744.83 689.096C742.291 688.275 737.71 687.978 737.71 687.978C737.71 687.978 732.056 687.157 728.734 685.891C723.346 683.862 717.104 678.124 716.432 677.859C715.76 677.568 710.7 675.888 709.731 676.037C708.762 676.179 706.513 685.568 705.996 690.982C703.702 713.753 709.757 728.847 719.107 749.712C732.728 780.042 770.483 817.733 770.483 817.733C770.483 817.733 779.962 823.147 784.013 826.326C795.321 835.185 814.027 847.688 830.569 864.224C844.733 878.4 863.633 903.6 863.633 903.6C863.633 903.6 874.488 918.811 879.522 929.55C885.731 942.764 890.681 962.827 890.681 962.827C890.681 962.827 891.12 966.323 891.527 967.021C891.908 967.757 892.826 968.643 893.537 968.675L900.134 968.907C900.832 968.907 908.321 968.313 913.251 967.085C918.194 965.858 929.896 960.52 937.618 956.443C945.326 952.405 954.599 944.554 954.599 944.554C954.599 944.554 956.343 943.074 965.402 933.02C974.455 922.953 980.296 907.859 982.467 902.205C984.587 896.499 986.377 885.644 987.727 867.021C989.116 848.393 986.583 828.678 986.583 828.678C986.583 828.678 983.172 801.197 981.097 791.873C979.049 782.517 974.093 767.339 974.093 767.339C974.093 767.339 970.63 753.744 969.499 745.182C968.439 736.588 968.22 722.676 968.22 722.676C968.22 722.676 968.22 714.141 971.05 698.375C973.841 682.628 983.521 666.803 983.521 666.803C983.521 666.803 986.196 661.511 996.644 649.034C1007.23 636.35 1010.65 634.295 1021.13 626.729C1029.41 620.726 1040.22 611.163 1043.72 613.398C1047.61 615.867 1039.91 620.726 1037.37 623.252C1030.83 629.694 1018.57 641.196 1008.65 658.442C1000.03 673.388 996.825 683.274 994.641 693.011C992.496 702.781 993.407 713.43 993.672 717.107C993.975 720.751 996.004 719.433 996.004 719.433C996.004 719.433 1017 702.575 1028.43 689.742C1040.85 675.914 1051.81 651.289 1056.14 651.082C1059.02 650.934 1060.41 657.525 1059.73 660.523C1056.96 673.323 1056.09 674.938 1051.97 683.358C1047.15 693.154 1042.79 697.509 1036.21 706.426C1029.2 715.84 1025.85 719.459 1020.26 731.904C1012.2 749.822 1016.89 763.649 1016.89 763.649C1016.89 763.649 1017.86 772.062 1021.66 771.946C1028.01 771.739 1041.91 754.202 1050.97 739.877C1057.64 729.313 1060.08 717.165 1064.5 710.807C1068.43 705.133 1071.97 720.014 1070.29 728.783C1068.32 739.166 1063.15 748.497 1051.85 763.21C1040.78 777.6 1041.16 791.279 1041.16 791.279C1041.16 791.279 1039.96 797.547 1039.08 811.135C1038.19 824.73 1042.08 845.33 1042.08 845.33C1042.08 845.33 1045.6 862.544 1046.26 875.635C1046.9 888.694 1046.46 918.565 1034.22 941.724C1029.36 951.048 1018.86 963.938 1018.86 963.938C1018.86 963.938 1010.89 972.171 1004.23 976.997C997.62 981.824 981.815 989.261 981.815 989.261C981.815 989.261 970.875 993.087 969.286 993.436C967.748 993.843 966.701 995.187 966.701 995.187L968.168 998.165C968.556 999.051 971.638 1006.58 971.638 1006.58C971.638 1006.58 974.94 1017.32 976.167 1025.83C977.401 1034.28 975.967 1036.21 974.726 1042.74C973.55 1048.95 970.817 1046.08 970.132 1058.31C969.512 1069.11 974.461 1074.5 973.55 1086.59C973.15 1091.87 967.141 1079.98 964.265 1074.87C958.101 1063.74 959.593 1046.83 959.451 1042.63C959.277 1038.42 958.986 1033.8 957.422 1028.39C955.451 1021.55 952.692 1016.14 949.449 1011.97C946.218 1007.79 942.8 1005.43 941.624 1005.82C940.512 1006.21 940.448 1008.44 940.39 1009.56C940.338 1010.67 942.599 1014.67 943.162 1015.56C943.659 1016.42 947.756 1023.86 947.756 1023.86C947.756 1023.86 949.539 1029.54 950.302 1040.64C950.999 1051.76 947.581 1065.37 947.581 1065.37C947.581 1065.37 943.162 1080.85 938.464 1089.88C933.256 1099.92 921.754 1113.57 921.754 1113.57C921.754 1113.57 913.516 1121.13 907.345 1133.55C901.161 1145.97 906.46 1151.41 904.166 1152.93C901.82 1154.56 896.936 1145.81 895.611 1139.87C894.396 1134.4 895.042 1131.82 897.226 1125.61C899.372 1119.69 904.347 1111.13 904.347 1111.13L911.817 1098.48C911.817 1098.48 920.675 1081.38 923.467 1069.02C926.297 1056.64 923.111 1042.92 923.111 1042.92C923.111 1042.92 922.704 1038.4 919.641 1038.56C916.533 1038.74 914.291 1041.52 913.051 1044.77C910.466 1051.58 914.11 1050.36 910.221 1061.67C907.125 1070.58 906.337 1069.4 904.709 1074.68C902.803 1081.03 901.743 1087.49 901.866 1091.48C902.008 1095.42 899.837 1093.76 899.837 1093.76C899.837 1093.76 896.102 1086.71 896.102 1077.97C896.102 1073.2 896.276 1070.54 896.845 1065.79C897.692 1058.16 900.78 1046.49 900.78 1046.49C900.78 1046.49 904.153 1034.98 903.423 1024.43C902.686 1013.89 898.977 1011.91 898.977 1011.91C898.977 1011.91 898.034 1010.46 893.924 1010.73C889.86 1010.99 890.028 1018.32 890.028 1018.32C890.028 1018.32 888.8 1028.74 887.185 1035.21C882.681 1053.15 876.737 1062.54 866.075 1077.63C856.493 1091.28 843.421 1103.26 836.92 1108.91C830.42 1114.59 810.402 1129.19 810.402 1129.19L786.979 1144.78C786.979 1144.78 777.687 1153.84 773.384 1164.63C769.068 1175.41 769.333 1183.85 771.801 1193.76C774.276 1203.65 777.888 1208.3 779.742 1211.01C781.622 1213.74 785.247 1218.63 786.41 1224.28C787.141 1227.82 786.611 1229.96 786.824 1233.57C787.024 1236.68 787.444 1238.46 787.38 1241.54C787.263 1246.52 788.174 1250.07 785.383 1254.13C783.264 1257.25 777.61 1259.9 777.61 1259.9C777.61 1259.9 771.284 1262.73 767.491 1265.03C727.597 1289.12 713.414 1304.69 690.96 1331.55C683.781 1340.08 689.054 1339.58 681.371 1349.73C676.816 1355.79 666.135 1355.77 662.251 1363.03C656.914 1372.88 674.406 1382.62 654.174 1391.34C628.186 1402.58 583.369 1394.54 582.496 1391.04C580.054 1381.32 591.239 1370.27 595.174 1365.91C613.434 1345.96 629.73 1345.47 635.675 1328.98C636.941 1325.45 636.483 1322.42 650.944 1311.71C661.153 1304.15 701.88 1273.52 719.65 1253.04C725.71 1246.07 731.009 1241.39 733.658 1233.79C736.307 1226.17 731.009 1221.34 731.009 1221.34L723.688 1209.43L709.705 1184.41C709.705 1184.41 703.851 1171.14 700.594 1163.47C697.376 1155.81 691.232 1135.07 691.232 1135.07C691.232 1135.07 686.702 1116.57 685.972 1104.48C684.583 1082.71 687.587 1070.05 693.293 1049.01C700.711 1021.56 717.537 1010.11 724.25 983.02C726.202 975.162 726.596 961.658 722.635 962.31C718.81 962.963 718.48 973.67 715.656 980.777C704.827 1007.67 690.527 1019.47 682.676 1047.37C677.404 1066.2 675.291 1077.4 675.343 1096.98C675.343 1108.15 674.935 1106.09 677.817 1125.52C678.877 1132.69 680.706 1136.49 682.812 1143.46C684.292 1148.41 688.292 1157.64 688.292 1157.64C688.292 1157.64 693.945 1170 695.826 1178.62C696.472 1181.52 697.176 1183.24 697.002 1186.21C696.646 1191.36 697.506 1192.48 695.031 1197.12C691.936 1202.86 693.855 1206.27 683.962 1208.41C675.291 1210.24 657.373 1204.51 657.373 1204.51C657.373 1204.51 583.827 1182.18 536.884 1188.59C527.573 1189.85 522.598 1193.24 513.196 1193.05C504.738 1192.93 500.37 1186.29 491.892 1188.83C490.128 1189.36 489.585 1190.57 488.067 1191.59C475.59 1200.27 485.12 1214.69 452.36 1207.18C432.239 1202.56 407.872 1190.3 412.111 1182.53C417.746 1172.27 425.338 1170.59 441.227 1164.07C458.214 1157.12 483.725 1159.08 488.733 1158.71C494.884 1158.3 503.736 1153.98 514.682 1153.79C533.634 1153.47 537.026 1155.7 537.026 1155.7L569.269 1158.53L630.881 1159.36C630.881 1159.36 641.897 1158.47 646.343 1157.64C650.743 1156.79 654.252 1148.11 656.636 1143.96C659.008 1139.85 656.572 1133.73 656.572 1133.73L654.704 1130.87L648.863 1121.4L638.001 1103.13L625.983 1079.18C625.983 1079.18 618.125 1062.44 613.906 1051.47C609.738 1040.57 607.328 1034.43 604.537 1023.13C601.635 1011.48 599.904 1002.03 599.535 992.744C599.057 979.356 598.217 968.856 601.952 957.91Z" fill="#231F20" /> <path d="M1002.22 935.663C1015.13 918.979 1016.4 903.562 1017.17 881.728C1017.77 865.897 1011.75 841.479 1011.75 841.479L1010.93 839.715C1010.93 839.715 1008.66 836.775 1007.27 840.658C1007.49 844.102 1007.94 846.868 1007.94 846.868L1008.7 878.316C1008.7 878.316 1007.7 894.154 1002.32 910.482C993.226 938.021 969.098 950.35 965.57 960.204C959.613 976.739 986.687 955.7 1002.22 935.663ZM866.172 986.548C866.172 986.548 860.848 988.04 860.757 993.287C860.622 998.54 862.043 1003.12 861.933 1009.4C861.785 1017.4 854.373 1026.77 859.129 1029.76C867.342 1034.94 874.365 998.392 871.878 992.983C869.377 987.581 866.954 986.483 866.172 986.548ZM774.599 1239.92C774.599 1239.92 773.1 1239.1 770.134 1240.21C767.194 1241.31 767.368 1244.37 767.368 1244.37C767.368 1244.37 766.8 1247.61 769.184 1247.99C771.568 1248.32 775.51 1242.55 775.484 1241.85C775.432 1241.2 774.599 1239.92 774.599 1239.92ZM688.518 1301.06C688.518 1301.06 687.594 1301.98 688.389 1302.62C689.157 1303.21 690.243 1302.39 690.243 1302.39C690.243 1302.39 705.137 1290.79 713.931 1282.59C723.275 1273.84 736.65 1258.81 736.65 1258.81C736.65 1258.81 737.561 1257.64 736.514 1256.67C735.526 1255.72 732.902 1257.2 730.809 1258.19C728.954 1259.14 727.869 1260.21 726.518 1261.37C725.129 1262.52 720.813 1267.01 720.813 1267.01L709.279 1278.22L702.106 1284.96L695.076 1291.7L692.091 1295.07C692.091 1295.07 691.303 1296.36 691.128 1296.69C690.928 1297.02 690.133 1298.04 690.133 1298.04C690.133 1298.04 689.099 1299.07 689.099 1299.34C689.099 1299.6 688.744 1299.96 688.718 1300.28C688.718 1300.63 688.518 1301.06 688.518 1301.06ZM662.762 1317.95C662.762 1317.95 661.121 1316.63 658.62 1317.95C656.081 1319.25 653.38 1322.75 653.167 1323.14C652.96 1323.52 651.538 1325.43 652.495 1327.05C653.438 1328.66 656.662 1326.28 657.115 1326.19C657.58 1326.13 661.786 1322.86 661.786 1322.86C661.786 1322.86 664.222 1321.33 662.762 1317.95ZM613.518 1367.85C613.518 1367.85 611.444 1363.88 608.679 1365.53C605.868 1367.15 604.395 1367.71 601.868 1371.18C601.442 1371.83 598.708 1375.35 598.191 1376.24C597.707 1377.16 595.032 1382.3 600.518 1382.62C610.036 1383.24 603.826 1377.09 607.083 1374.73C609.732 1372.88 614.675 1373.34 614.733 1371.4C614.811 1369.5 613.518 1367.85 613.518 1367.85ZM444.865 1168.69C444.865 1168.69 439.127 1170.05 438.714 1172.07C438.287 1174.09 442.054 1176.07 442.655 1176.16C443.288 1176.29 444.613 1177.75 448.38 1175.19C452.147 1172.63 451.999 1170.44 451.999 1170.44C451.999 1170.44 454.221 1167.87 444.865 1168.69ZM537.647 1165.66C537.647 1165.66 537.588 1163.58 533.531 1163.81C529.453 1164.04 528.555 1164.8 528.471 1165.4C528.348 1166.04 528.646 1167.08 532.322 1167.37C536.031 1167.67 537.53 1167.34 537.647 1165.66ZM625.298 1168.23C617.938 1168.13 620.297 1168.37 615.748 1168.61C607.496 1169.05 602.992 1168.71 594.87 1168.18C583.472 1167.45 565.813 1164.56 565.813 1164.56C565.813 1164.56 563.59 1164.09 562.711 1165.47C561.877 1166.95 564.863 1169.97 567.538 1170.83C581.967 1175.32 582.723 1174.5 592.602 1174.68C598.088 1174.77 601.164 1174.22 606.604 1173.86C613.505 1173.38 616.756 1174.44 624.257 1172.44C626.228 1171.93 628.141 1168.25 625.298 1168.23ZM674.748 1153.51C674.748 1153.51 673.262 1151.83 670.232 1153.3C667.175 1154.79 665.347 1158.13 665.347 1158.13C665.347 1158.13 663.931 1160.34 666.936 1159.98C669.954 1159.63 672.564 1158.33 673.333 1157.86C674.096 1157.46 676.28 1155.36 674.748 1153.51ZM631.714 560.556C631.714 560.556 652.637 540.958 667.531 515.125C676.415 499.74 680.279 463.871 672.655 472.846C669.198 476.878 665.069 495.533 658.471 509.27C649.076 528.862 628.987 556.64 628.987 556.64C628.987 556.64 624.665 565.912 631.714 560.556ZM548.347 610.194C548.347 610.194 546.124 611.874 547.113 614.697C548.147 617.521 552.457 615.369 552.457 615.369C552.457 615.369 562.033 611.751 572.151 611.337C582.315 610.924 596.356 613.954 596.356 613.954C596.356 613.954 603.051 615.809 604.181 616.222C605.299 616.629 608.95 618.426 609.525 618.639C610.126 618.846 613.557 620.577 615.508 618.813C617.512 617.049 603.341 604.223 588.913 602.278C564.908 599.009 549.09 609.308 549.09 609.308L548.347 610.194ZM449.323 694.84C451.062 696.249 459.106 680.98 465.833 671.333C470.744 664.212 479.719 652.355 479.719 652.355C479.719 652.355 483.718 646.908 476.895 649.971C474.084 651.205 466.466 657.001 461.096 667.682C456.515 676.748 447.598 693.367 449.323 694.84ZM393.819 628.376C393.819 628.376 392.1 634.231 399.046 641.674C406.005 649.086 407.795 655.237 412.24 650.798C413.475 649.622 407.905 639.561 405.062 636.796C403.357 635.166 401.708 633.479 400.119 631.736L398.342 630.263L396.003 628.997L394.71 628.467C394.697 628.467 394.303 628.111 393.819 628.376ZM371.339 571.592C371.339 571.592 363.837 573.007 361.963 576.626C360.109 580.27 370.615 578.067 370.615 578.067C370.615 578.067 377.606 578.474 377.762 575.799C377.942 573.124 376.857 572.794 371.339 571.592ZM251.942 769.458C248.149 768.308 247.483 775.875 246.999 778.285C246.527 780.727 248.692 785.638 249.558 785.58C250.469 785.554 253.519 780.785 253.693 778.433C253.867 776.075 255.354 770.486 251.942 769.458ZM375.926 916.808C375.926 916.808 369.084 911.393 368.03 913.551C367.016 915.658 373.691 925.234 373.691 925.234C373.691 925.234 375.707 928.342 378.866 926.907C382 925.466 380.87 922.022 380.87 922.022C380.87 922.022 378.757 917.544 375.926 916.808ZM324.189 757.394C324.189 757.394 322.451 756.981 321.779 759.068C321.145 761.155 321.223 764.631 320.764 768.747C320.363 772.011 321.604 780.663 321.604 780.663C321.604 780.663 322.27 787.492 323.62 791.667C325.106 796.112 329.08 802.438 329.08 802.438C329.08 802.438 330.579 805.734 332.388 805.585C334.198 805.41 333.784 803.233 333.784 803.233C333.784 803.233 328.046 780.43 327.84 778.104C327.148 770.544 327.206 761.278 327.206 761.278L327.148 759.863C327.148 759.863 327.09 757.485 324.189 757.394ZM333.177 687.836C333.177 687.836 329.985 687.19 327.09 693.309C324.163 699.46 324.764 701.928 325.016 702.219C325.248 702.516 327.6 702.426 331.309 696.746C334.973 691.092 334.165 688.979 334.165 688.979C334.165 688.979 333.959 687.836 333.177 687.836ZM420.117 750.894C420.117 750.894 423.975 756.574 416.628 755.275C409.3 753.95 393.896 741.829 387.661 738.565C381.47 735.302 371.3 734.21 375.584 730.443C376.334 729.771 376.527 729.151 377.794 729.093C379.06 729.035 383.235 730.708 383.512 730.831C383.751 730.973 394.587 735.419 394.988 735.567C395.389 735.742 401.437 738.333 405.772 740.866C410.115 743.425 417.132 748.335 417.132 748.335L420.117 750.894ZM622.888 925.428C624.878 931.753 599.807 912.188 586.373 901.843C550.757 874.452 507.167 818.25 512.608 813.306C517.138 809.19 534.997 834.933 561.186 863.267C589.139 893.501 621.712 921.686 622.888 925.428ZM727.552 898.554C719.818 906.857 717.052 917.48 721.517 925.421C725.937 933.123 727.287 914.152 732.159 908.498C736.32 903.678 738.873 904.408 745.812 899.523C757.598 891.214 737.406 888.009 727.552 898.554ZM682.98 721.236C677.695 720.35 677.869 728.44 678.625 734.236C682.16 760.011 693.719 779.874 709.169 798.613C718.583 809.966 744.365 830.268 747.396 827.031C748.481 825.855 722.822 806.082 706.526 780.63C694.966 762.59 688.757 747.263 687.335 732.375C687.154 730.527 687.6 721.972 682.98 721.236ZM583.214 339.06C571.576 345.386 551.423 350.917 551.423 350.917C551.423 350.917 550.492 352.887 553.083 352.681C570.342 351.33 576.914 349.12 586.141 345.088C595.316 341.089 602.043 330.052 602.043 330.052C602.043 330.052 605.752 323.255 598.792 328.876C596.673 330.589 589.565 335.564 583.214 339.06ZM723.41 294.753C723.41 294.753 719.462 293.867 716.813 295.522C714.177 297.195 714.933 298.552 714.933 298.552C714.933 298.552 718.997 301.731 721.937 302.203C724.877 302.642 731.177 305.382 730.886 303.263C730.647 301.117 727.113 297.202 725.937 296.142C724.703 295.076 723.41 294.753 723.41 294.753ZM657.412 415.83C658.103 417.212 669.895 414.007 674.399 411.474C677.992 409.471 679.342 402.797 679.342 402.797C679.342 402.797 680.344 396.296 678.813 398.79C672.06 409.769 656.753 414.414 657.412 415.83ZM657.031 385.583C661.786 376.492 643.952 395.088 634.874 399.915C629.33 402.855 620.329 406.712 620.329 406.712C620.329 406.712 617.944 409.685 621.272 409.446C624.613 409.181 633.103 412.095 639.914 406.738C641.516 405.504 648.708 395.088 648.708 395.088C648.708 395.088 654.737 389.964 657.031 385.583ZM654.278 424.475C654.62 425.974 674.658 425.444 679.659 424.003C683.568 422.86 685.694 415.855 685.694 415.855C685.694 415.855 688.104 409.769 686.082 411.856C677.036 421.063 653.948 422.95 654.278 424.475ZM333.5 607.396C333.5 607.396 330.456 606.31 326.689 611.983C322.955 617.605 306.154 643.083 309.153 646.876C312.681 651.321 327.232 624.073 331.658 618.955C336.117 613.864 334.34 608.63 334.34 608.63C334.34 608.63 334.282 607.486 333.5 607.396ZM699.638 1067.95C697.874 1076.43 700.052 1093.71 702.933 1097.14C710.061 1105.73 705.699 1083.72 706.694 1076.01C707.554 1068.77 708.497 1066.3 711.993 1058.59C718.351 1044.76 703.399 1049.88 699.638 1067.95ZM638.35 329.91C638.35 329.91 632.806 330.033 628.464 332.411C624.128 334.827 622.978 338.149 622.978 338.149C622.978 338.149 622.112 340.565 622.713 341.916C623.98 344.862 629.937 340.417 634.157 341.89C637.568 343.098 639.19 344.067 641.749 347.182C644.017 349.922 648.017 353.805 650.517 351.595C653.018 349.392 652.12 343.886 652.12 343.886C652.12 343.886 649.16 334.879 645.309 332.294C641.452 329.736 638.35 329.91 638.35 329.91ZM546.273 393.376C546.273 393.376 543.197 393.88 543.921 397.614C544.657 401.356 546.667 400.761 546.667 400.761C546.667 400.761 553.083 398.028 552.657 394.17C552.276 390.261 546.273 393.376 546.273 393.376ZM501.313 373.222C501.313 373.222 497.947 373.345 495.588 377.519C493.223 381.693 491.853 385.997 491.853 385.997C491.853 385.997 490.723 391.495 492.706 393.201C494.697 394.939 496.829 389.641 499.665 387.644C501.384 386.41 502.431 385.822 504.182 384.614C506.599 382.94 510.508 385.085 510.217 380.2C509.907 375.316 504.699 372.989 501.313 373.222ZM646.569 320.909C646.569 320.909 638.919 319.824 639.216 322.764C639.468 325.471 643.377 323.849 645.878 324.973C648.32 326.033 649.878 326.473 651.829 328.295C653.263 329.561 653.089 332.062 654.853 332.088C657.289 332.12 656.772 331.144 656.772 331.144C656.772 331.144 654.588 324.553 651.713 322.641C648.87 320.793 646.569 320.909 646.569 320.909ZM731.946 351.744C730.822 355.892 730.156 357.365 730.156 357.365C730.156 357.365 727.998 365.811 736.566 362.69C745.095 359.511 740.727 360.867 746.827 357.895C752.92 354.923 752.72 356.545 757.191 356.745C758.71 356.803 759.666 356.894 761.953 356.422C763.866 356.041 763.071 353.721 758.781 352.571C754.154 351.337 748.417 351.66 741.832 351.569C738 351.537 733.057 347.628 731.946 351.744ZM735.707 320.437C735.707 320.437 731.771 319.585 729.116 321.232C726.441 322.912 727.235 324.23 727.235 324.23C727.235 324.23 731.326 327.442 734.24 327.881C737.18 328.379 743.48 331.086 743.241 328.941C742.95 326.796 739.416 322.912 738.246 321.82C737.503 321.19 736.639 320.719 735.707 320.437ZM750.775 379.167C750.775 379.167 746.562 378.346 743.706 379.961C740.831 381.551 741.677 382.785 741.677 382.785C741.677 382.785 746.071 385.783 749.185 386.229C752.3 386.643 759.065 389.201 758.8 387.173C758.535 385.169 754.775 381.493 753.476 380.459C752.19 379.457 750.775 379.167 750.775 379.167ZM752.009 400.496C752.009 400.496 747.564 399.527 744.54 401.349C741.535 403.139 742.446 404.612 742.446 404.612C742.446 404.612 747.066 408.056 750.361 408.586C753.702 409.084 760.784 411.998 760.48 409.672C760.189 407.378 756.254 403.139 754.891 401.963C753.541 400.826 752.009 400.496 752.009 400.496ZM754.045 421.27C754.045 421.27 749.211 420.185 745.955 422.214C742.685 424.275 743.661 425.89 743.661 425.89C743.661 425.89 748.681 429.799 752.242 430.362C755.847 430.917 763.549 434.271 763.246 431.686C762.929 429.069 758.6 424.275 757.133 422.95C755.66 421.651 754.045 421.27 754.045 421.27ZM753.541 446.955C753.541 446.955 748.746 445.869 745.451 447.924C742.181 449.953 743.176 451.601 743.176 451.601C743.176 451.601 748.184 455.484 751.77 456.046C755.369 456.634 763.129 459.956 762.774 457.339C762.445 454.722 758.128 449.953 756.655 448.629C755.755 447.844 754.691 447.272 753.541 446.955ZM750.045 497.006C750.045 497.006 745.212 495.921 741.942 497.975C738.685 500.004 739.655 501.652 739.655 501.652C739.655 501.652 744.649 505.568 748.236 506.124C751.835 506.712 759.595 510.007 759.24 507.416C758.923 504.799 754.594 500.004 753.121 498.673C751.66 497.387 750.045 497.006 750.045 497.006ZM753.295 471.935C753.295 471.935 747.744 470.701 743.945 473.053C740.184 475.405 741.322 477.292 741.322 477.292C741.322 477.292 747.124 481.822 751.24 482.468C755.395 483.114 764.364 486.971 763.95 483.967C763.595 480.936 758.6 475.405 756.894 473.9C755.188 472.375 753.295 471.935 753.295 471.935ZM747.654 519.602C747.654 519.602 743.706 518.691 741.005 520.397C738.291 522.071 739.125 523.428 739.125 523.428C739.125 523.428 743.241 526.639 746.22 527.104C749.16 527.576 755.511 530.341 755.24 528.164C754.975 526.012 751.415 522.071 750.219 520.985C749.004 519.893 747.654 519.602 747.654 519.602ZM743.919 541.313C743.919 541.313 740.65 540.577 738.414 541.992C736.172 543.374 736.824 544.492 736.824 544.492C736.824 544.492 740.262 547.174 742.698 547.555C745.153 547.936 750.432 550.204 750.206 548.44C750 546.644 747.06 543.381 746.045 542.47C745.431 541.932 744.705 541.537 743.919 541.313ZM739.299 561.086C739.299 561.086 736.32 560.407 734.292 561.674C732.295 562.908 732.876 563.942 732.876 563.942C732.876 563.942 735.946 566.358 738.175 566.681C740.385 567.063 745.153 569.091 744.979 567.502C744.766 565.887 742.116 562.914 741.205 562.145C740.301 561.318 739.299 561.086 739.299 561.086ZM734.595 577.298C734.595 577.298 731.591 576.626 729.587 577.853C727.591 579.12 728.172 580.147 728.172 580.147C728.172 580.147 731.268 582.532 733.471 582.881C735.707 583.262 740.449 585.297 740.236 583.675C740.036 582.086 737.387 579.113 736.476 578.319C735.59 577.537 734.595 577.298 734.595 577.298ZM728.941 596.101C728.941 596.101 726.531 595.545 724.942 596.573C723.287 597.606 723.791 598.427 723.791 598.427C723.791 598.427 726.292 600.34 728.056 600.663C729.846 600.928 733.71 602.575 733.535 601.277C733.361 599.984 731.216 597.6 730.466 596.954C730.03 596.556 729.508 596.264 728.941 596.101ZM722.176 613.722C722.176 613.722 720.121 613.282 718.732 614.135C717.317 614.988 717.737 615.725 717.737 615.725C717.737 615.725 719.882 617.372 721.407 617.611C722.932 617.876 726.266 619.291 726.15 618.167C726.001 617.082 724.121 614.988 723.527 614.432C723.137 614.094 722.675 613.851 722.176 613.722ZM715.198 630.438C715.198 630.438 713.117 629.998 711.754 630.877C710.313 631.73 710.758 632.434 710.758 632.434C710.758 632.434 712.942 634.114 714.467 634.347C715.992 634.612 719.288 636.053 719.178 634.909C719.003 633.791 717.162 631.73 716.529 631.168C715.895 630.606 715.198 630.438 715.198 630.438ZM262.694 715.556C262.694 715.556 259.205 722.321 260.917 726.03C262.642 729.739 267.346 720.111 267.346 720.111C267.346 720.111 272.212 710.49 270.228 708.726C268.212 706.936 267.062 711.937 262.694 715.556Z" fill="white" /> <path d="M528.012 1311.1C528.012 1311.1 525.396 1307.72 522.921 1310.18C520.446 1312.66 517.228 1316.6 511.503 1316.22C505.752 1315.78 503.284 1314.89 500.047 1313.51C496.855 1312.09 492.37 1309.98 492.37 1309.98C492.37 1309.98 480.688 1305.48 470.776 1305.24C460.89 1304.98 444.71 1309.11 436.878 1317.6C429.041 1326.04 427.05 1334.85 427.05 1334.85C427.05 1334.85 424.433 1350.3 428.924 1357.35C433.409 1364.47 438.294 1372.09 449.168 1378.76C460.082 1385.44 464.831 1387.91 464.831 1387.91L483.764 1396.62L501.262 1403.22C501.262 1403.22 526.552 1410.78 529.621 1429.91C532.684 1449.04 521.208 1473.78 486.297 1476.05C451.947 1478.29 435.218 1461.61 429.868 1450.92C424.524 1440.18 427.6 1431.12 427.6 1431.12L429.041 1428.18L430.391 1427.51C430.391 1427.51 435.735 1431.13 440.969 1430.44C446.19 1429.77 455.798 1423.47 453.808 1413.2C451.792 1402.91 442.571 1400.64 438.138 1401.02C433.738 1401.41 414.056 1406.5 413.675 1435.12C413.274 1463.72 439.347 1478.96 439.347 1478.96C439.347 1478.96 457.807 1490.45 478.653 1489.55C499.51 1488.6 516.769 1480.31 516.769 1480.31C516.769 1480.31 547.649 1464.95 548.47 1431.38C549.252 1397.85 528.006 1386.03 528.006 1386.03C528.006 1386.03 520.388 1380.71 513.429 1377.48C505.518 1373.79 497.632 1370.04 489.773 1366.24L472.785 1358.5L462.486 1352.76L456.716 1348.88C456.716 1348.88 442.965 1338.04 450.299 1326.28C457.659 1314.52 478.93 1318.92 478.93 1318.92C478.93 1318.92 495.375 1322.39 508.208 1331.63C521.053 1340.84 528.555 1351.94 528.555 1351.94L533.88 1360.65L534.539 1361.86L539.1 1360.27C539.1 1360.27 532.006 1340.48 530.655 1332.17C529.337 1323.9 528.012 1311.1 528.012 1311.1ZM731.591 1424.29C731.591 1424.29 736.185 1429.38 742.291 1429.38C748.475 1429.38 757.237 1425.09 757.12 1413.99C757.004 1402.9 745.774 1399.93 745.774 1399.93C745.774 1399.93 728.786 1395.93 720.522 1413.2C712.232 1430.44 716.761 1445.41 716.761 1445.41C716.761 1445.41 720.651 1468.69 745.244 1482.45C769.837 1496.21 796.206 1486.07 796.206 1486.07C796.206 1486.07 815.972 1479.5 833.095 1460.24C850.219 1441 858.373 1418.13 858.373 1418.13L864.369 1403.16L871.587 1403.3C871.587 1403.3 881.648 1404.24 888.697 1398.48C895.831 1392.7 900.231 1384.83 900.231 1384.83L901.155 1382.45L896.587 1380.33C896.587 1380.33 891.411 1387.13 884.168 1387.8C876.963 1388.45 869.468 1387.24 869.468 1387.24L876.407 1368.65C876.407 1368.65 884.433 1352.47 886.733 1348.72C889.007 1344.99 898.357 1332.96 898.357 1332.96C898.357 1332.96 917.606 1332.84 936.19 1328.96C954.793 1325.08 966.262 1320.4 966.262 1320.4L989.271 1310.89L994.887 1307.83L993.155 1303.27C993.155 1303.27 972.433 1310.63 941.779 1314.13C911.19 1317.6 891.941 1313.86 891.941 1313.86L857.158 1308.48C857.158 1308.48 846.587 1306.77 838.446 1306.63C830.304 1306.51 813.672 1309.54 813.672 1309.54C813.672 1309.54 797.137 1313.3 789.667 1318.92C782.133 1324.55 764.364 1337.66 772.544 1357.71C780.673 1377.77 813.976 1367.06 818.686 1352.2C818.518 1352.34 820.54 1347.41 820.54 1347.41L821.096 1344.73L818.253 1343.64L814.913 1347.52C814.913 1347.52 802.493 1357.97 792.853 1351.26C783.27 1344.58 789.783 1335.25 790.733 1334.16C791.651 1333.11 796.852 1326.81 809.297 1324.02C821.742 1321.23 840.455 1325.76 840.455 1325.76L860.783 1329.5C860.783 1329.5 872.013 1331.64 872.517 1331.64C873.073 1331.64 876.692 1332.17 876.692 1332.17L869.59 1340.06C869.59 1340.06 859.291 1349.95 852.06 1364.28C844.855 1378.58 841.521 1386.05 841.521 1386.05L840.817 1387.13C840.817 1387.13 831.764 1388.19 826.026 1391.66C820.256 1395.14 816.521 1400.49 816.521 1400.49L813.833 1405.32L817.439 1408.38C817.439 1408.38 821.594 1403.69 826.679 1402.38C831.764 1401.02 835.635 1403.05 835.635 1403.05C835.635 1403.05 828.269 1421.21 824.799 1427.76C821.329 1434.31 815.442 1446.36 807.152 1455.31C798.888 1464.25 792.853 1472.04 773.875 1474.72C754.891 1477.37 741.503 1465.19 736.572 1459.19C731.597 1453.19 728.683 1444.07 728.418 1437.42C728.121 1430.7 731.591 1424.29 731.591 1424.29Z" fill="#231F20" /> </svg>