<svg width="201" height="180" viewBox="0 0 201 180" fill="none" xmlns="http://www.w3.org/2000/svg"> <path fill-rule="evenodd" clip-rule="evenodd" d="M111.853 158.978C93.334 158.978 76.6255 151.513 64.3261 139.396H83.4303C83.4303 139.396 138.333 41.5685 138.526 41.1794C138.793 40.7795 138.658 40.5189 138.276 40.5189H115.869C115.416 40.5189 115.348 40.6546 115.223 40.8474C115.091 41.0437 84.2693 95.3286 84.2693 95.3286H43.9974C43.8663 93.6074 43.8032 91.8816 43.8082 90.1554C43.8082 52.1756 74.2334 21.3291 111.856 21.3291C131.017 21.3291 148.372 29.387 160.739 42.354C155.37 51.5223 131.278 92.9009 128.043 98.9274C126.166 94.536 117.486 95.3929 113.02 95.3215C111.074 98.5953 101.952 116.018 101.952 116.018C101.952 116.018 106.994 115.954 111.528 116.018C115.933 116.089 116.455 120.731 114.705 123.68C112.952 126.629 105.762 139.388 105.762 139.388H128.882C128.882 139.388 157.248 89.2985 173.367 60.8191C177.688 69.994 179.919 80.0138 179.897 90.1554C179.897 128.139 149.408 158.975 111.849 158.975M48.7922 116.021H72.2912L60.9558 135.861C55.8412 129.959 51.7307 123.256 48.7886 116.021M111.849 0.900391C63.0944 0.900391 23.6044 40.8509 23.6044 90.159C23.6044 91.9226 23.6615 93.6221 23.7294 95.3286H12.2048C11.5586 95.3286 11.2337 95.7213 10.973 96.1855C10.7803 96.6424 0.548059 114.847 0.287434 115.304C0.0946432 115.761 0.0946432 116.021 0.615892 116.021H27.3567C38.2958 152.687 71.9699 179.41 111.849 179.41C160.611 179.41 200.104 139.46 200.104 90.159C200.104 40.8474 160.607 0.900391 111.849 0.900391Z" fill="#E6002D" /> </svg>