<svg width="154" height="83" viewBox="0 0 154 83" fill="none" xmlns="http://www.w3.org/2000/svg"> <path d="M106.442 2.19463C113.179 1.00567 120.03 0.835794 126.824 0.72256C133.618 0.665942 140.695 1.40199 146.753 4.7424C152.302 7.00708 155.359 13.8011 153.321 19.5195C150.66 28.2951 144.375 35.3156 137.977 41.6001C121.785 58.3022 101.686 70.305 82.3794 82.9873C85.6066 78.2881 88.2676 73.1359 90.2492 67.8139C91.7779 63.6242 93.2499 59.2647 93.4198 54.7353C93.6462 50.0927 92.6838 45.1104 89.6831 41.4303C86.6823 38.0333 82.3794 35.995 78.0765 34.8061C71.8487 33.0509 65.2811 32.8811 58.8267 32.8811C44.1629 32.9944 29.6123 35.3723 15.2881 38.3163C10.2492 39.2222 5.32355 40.7509 0.171387 40.9774C4.53091 39.5619 8.38083 37.0141 12.5139 34.9759C31.8203 25.1812 51.8062 16.6886 72.4714 10.2343C83.5684 6.724 94.9484 4.17623 106.442 2.19463Z" fill="#fe7e00" /> </svg>