<svg width="672" height="257" viewBox="0 0 672 257" fill="none" xmlns="http://www.w3.org/2000/svg"> <path d="M313.555 254.308C314.263 254.443 314.97 254.568 315.675 254.694L313.555 254.308ZM319.338 255.271C320.162 255.394 320.985 255.503 321.811 255.612L319.338 255.271ZM325.453 256.005C326.258 256.078 327.057 256.146 327.862 256.208L325.453 256.005ZM328.723 256.267C329.402 256.317 330.082 256.357 330.761 256.393L328.723 256.267ZM331.75 256.445C332.554 256.48 333.359 256.511 334.164 256.537L331.75 256.445ZM334.963 256.546C336.761 256.594 338.559 256.596 340.356 256.551L334.963 256.546ZM341.215 256.537C342.053 256.512 342.891 256.479 343.728 256.44L341.215 256.537ZM344.519 256.402C345.245 256.362 345.96 256.317 346.682 256.267L344.519 256.402ZM347.432 256.215C348.217 256.156 349.005 256.09 349.786 256.016L347.432 256.215ZM353.816 255.567C354.422 255.496 355.023 255.418 355.622 255.323L353.816 255.567ZM464.223 52.4905C463.572 52.1394 462.904 51.8204 462.222 51.5345L464.223 52.4905ZM457.664 50.1312C456.827 49.9598 455.982 49.8303 455.132 49.7431L457.664 50.1312ZM28.1862 137.199C25.2737 134.526 23.0605 131.18 21.7402 127.454C20.6659 124.343 19.2745 120.455 19.2745 117.154C19.3431 102.269 28.03 91.2136 37.3819 86.0952C41.6319 83.7714 43.2102 82.1765 43.8586 81.3577C43.5474 81.2202 43.2155 81.1354 42.8766 81.1069C30.1479 81.1069 23.6215 76.1612 20.4174 71.9751C17.3814 68.054 15.8314 62.9995 15.8314 57.4717C15.8314 54.7859 16.21 51.9746 16.9555 49.0995C20.5429 43.1741 23.9504 44.8022 26.0375 47.8335C27.3674 49.7313 36.4803 56.1915 47.7087 57.2161C55.8797 57.9923 60.2835 61.9891 62.5741 65.1813C65.215 68.8775 66.2278 73.331 66.2278 77.1196C66.2278 78.6695 66.0527 80.1248 65.719 81.4192C64.4885 86.4123 59.2281 90.9131 51.9018 96.6468L47.7465 100.092C41.6626 105.416 38.3142 111.342 38.3142 116.363C38.3142 117.617 38.5343 118.841 38.9579 119.97C39.133 120.433 39.3436 120.881 39.592 121.304C42.311 125.907 49.9946 128.794 61.1401 124.894C66.2917 123.107 76.2091 116.865 82.2646 110.861C89.3897 103.753 98.9001 102.047 108.058 101.323C115.999 100.724 120.888 98.7765 124.331 94.9051C134.507 83.4401 144.299 81.8286 153.464 81.1471C156.971 80.8773 157.16 80.6265 157.617 80.0089C162.669 73.2813 167.858 69.7199 172.515 67.647C176.065 66.0687 179.307 65.3493 181.962 64.7672L185.185 63.9744L185.989 63.6905C191.091 62.0482 195.041 60.6876 205.419 53.6737L205.862 53.3944L205.864 53.3897L206.3 53.1176L206.304 53.1152L206.742 52.8573L206.749 52.8549L207.187 52.6041L207.194 52.6017L207.634 52.3698L207.649 52.3651L208.084 52.1379L208.098 52.1332L208.536 51.9202L208.555 51.9155L208.995 51.712L209.012 51.7025L209.454 51.5179L209.473 51.5108L209.913 51.3286L209.937 51.3239L210.379 51.1582L210.401 51.1464L210.838 50.9902L211.305 50.834L211.335 50.8269L211.771 50.6873L211.799 50.6802L212.242 50.5524L212.272 50.5453L212.71 50.4247L212.743 50.4152L213.183 50.3111L213.224 50.3016L213.657 50.2022L213.692 50.1928L214.135 50.1028L214.173 50.0934L214.61 50.0129L214.651 50.0058L215.088 49.9324L215.129 49.9277L215.562 49.8638L215.607 49.8544L216.042 49.8047L216.087 49.7952L216.515 49.7479L216.563 49.7455L216.996 49.7053L217.045 49.7005L217.476 49.6698L217.526 49.665L217.949 49.639L217.999 49.6367L218.427 49.6177L218.905 49.6035H218.955L219.381 49.5988H219.911L220.332 49.6035L220.382 49.6059H220.432C220.735 49.613 221.037 49.6319 221.34 49.6485L221.757 49.6745L221.816 49.6792L222.225 49.71L222.287 49.7147L222.696 49.755L222.76 49.7621L223.167 49.8023L223.233 49.807L223.638 49.8567L223.702 49.8662L224.104 49.9159L224.173 49.9277L224.57 49.9869L224.637 49.9987L225.037 50.0602L225.108 50.0744L225.498 50.1431L225.571 50.1549L225.959 50.2259L226.03 50.2424C226.65 50.3584 227.261 50.4956 227.86 50.6424L228.236 50.737L228.312 50.7583C228.915 50.9145 229.511 51.0801 230.098 51.2552L230.446 51.3641L230.531 51.3901C231.696 51.7569 232.824 52.171 233.918 52.6088L234.225 52.7366L234.627 52.9022C256.824 22.7477 291.917 2.68334 331.802 0.868347V0.858882C333.766 0.770598 335.731 0.725626 337.697 0.723999C338.996 0.724854 340.295 0.744576 341.594 0.783158C342.24 0.804455 342.886 0.830485 343.53 0.856515H343.537C344.176 0.887278 344.822 0.918041 345.463 0.958269C384.058 3.2773 418.049 22.7146 439.94 51.7758C443.066 50.6897 446.471 49.9017 449.947 49.665L450.04 49.6603L450.368 49.639L450.712 49.6225L450.794 49.6177L450.884 49.6154L451.22 49.6059L451.31 49.6012L451.646 49.5988L451.736 49.5964L452.079 49.5941H452.162L452.505 49.5964H452.59L453.014 49.6035L453.36 49.6177L453.435 49.6201L453.781 49.6367L453.861 49.6414L454.209 49.665L454.275 49.6698L454.628 49.6982L454.697 49.7029L455.051 49.7384L455.115 49.7455C455.965 49.8325 456.81 49.962 457.647 50.1336L458.019 50.2093L458.069 50.2211L458.435 50.3087L458.487 50.3182L458.857 50.4128L458.906 50.4247L459.28 50.524L459.32 50.5359L459.704 50.6424L459.739 50.6542L460.113 50.7701L460.156 50.782L460.537 50.9074L460.57 50.9169L460.982 51.0612L461.367 51.1985L461.391 51.2103L461.774 51.3594L461.798 51.3688L462.188 51.525L462.212 51.5368C462.886 51.8208 463.554 52.1355 464.214 52.4929L464.226 52.4999L464.616 52.7082L464.621 52.7129L465.011 52.9377L465.019 52.9401L465.409 53.1767L465.414 53.1791L465.799 53.4228L466.19 53.676C473.341 58.5365 477.473 60.6781 480.999 62.0766C482.584 62.7084 484.056 63.1841 485.618 63.6928L486.439 63.9768L489.695 64.7695C491.46 65.1576 493.476 65.6048 495.661 66.3195C501.124 68.099 507.653 71.5539 513.988 80.0112C514.447 80.6289 514.651 80.8797 518.174 81.1495C527.33 81.8333 537.105 83.4425 547.323 94.9075C550.74 98.7788 555.605 100.724 563.544 101.325C572.757 102.049 582.236 103.753 589.347 110.864C595.41 116.867 605.315 123.11 610.481 124.896C621.622 128.796 629.343 125.909 631.998 121.307C632.58 120.336 632.971 119.269 633.17 118.14C633.274 117.555 633.327 116.961 633.328 116.366C633.328 111.344 629.975 105.419 623.908 100.095L623.153 99.4675L619.712 96.6491C612.414 90.9154 607.152 86.4146 605.883 81.4216C605.55 80.1272 605.405 78.6719 605.405 77.1219C605.405 73.331 606.442 68.8799 609.03 65.1836C611.338 61.9914 615.789 57.9946 623.908 57.2185C635.195 56.1938 644.258 49.7337 645.584 47.8359C647.706 44.8045 651.081 43.1765 654.654 49.1019C655.411 51.977 655.79 54.7882 655.79 57.474C655.79 63.0326 654.24 68.0564 651.206 71.9775C647.981 76.1635 641.476 81.1092 628.726 81.1092C628.456 81.1092 628.08 81.2347 627.765 81.3601C628.397 82.1812 629.975 83.7761 634.235 86.0975C643.586 91.2183 652.283 102.274 652.361 117.156C652.361 120.457 650.986 124.343 649.876 127.457C648.717 130.723 646.878 133.706 644.481 136.21C644.157 136.546 643.818 136.877 643.461 137.201C638.193 142.095 629.419 145.936 614.8 145.062C613.26 144.968 611.724 144.83 610.192 144.646C609.814 152.022 607.791 160.789 604.944 165.212C604.078 166.601 603.907 167.533 603.907 167.99C603.907 168.182 603.926 168.293 603.926 168.373C604.016 168.404 610.412 172.179 610.412 172.179L611.444 172.702C611.444 172.702 612.045 172.986 612.123 173.049C612.216 173.016 614.333 172.922 614.333 172.922L614.752 172.862L614.795 172.858C618.794 172.477 624.902 170.52 627.498 177.77C628.177 179.694 628.591 181.37 628.981 182.853C629.774 185.887 630.453 188.14 633.108 190.187C633.108 190.187 634.421 189.06 635.912 187.735C637.064 186.718 638.193 185.676 639.299 184.609C641.149 182.714 644.573 183.677 647.041 184.609C649.538 185.556 652.628 187.707 654.812 188.951C657.011 190.184 658.222 191.748 658.854 193.615C659.514 195.478 661.041 196.711 663.369 197.944C665.617 199.221 668.84 203.315 668.84 208.841C668.84 209.688 668.935 210.412 669.174 211.181C669.337 211.69 669.56 212.22 669.865 212.823C673.007 219.158 670.485 222.348 668.665 223.692C666.218 225.523 661.902 226.281 657.846 225.618L657.879 226.659L651.956 225.869C649.661 225.583 646.634 226.169 644.826 226.546L644.4 226.659C640.184 227.497 634.67 226.07 631.572 221.039C631.459 220.852 631.345 220.665 631.239 220.467C629.658 217.691 627.197 215.114 625.993 214.402C624.253 214.88 621.506 215.528 618.236 215.194C615.202 214.889 611.702 213.725 608.143 210.776C607.554 210.286 606.96 209.745 606.371 209.158C601.141 203.911 594.241 202.837 589.903 203.502L587.317 203.961C581.978 204.927 575.31 206.157 569.15 202.399C567.617 201.465 565.407 200.502 563.239 199.586C557.647 197.151 551.866 194.64 551.078 189.347C550.946 188.402 549.924 186.677 549.083 185.305C548.345 184.091 547.541 182.763 546.918 181.341C546.32 179.983 545.889 178.537 545.849 177.027C544.018 177.498 542.126 177.691 540.238 177.6C539.571 177.566 538.906 177.501 538.246 177.404L535.818 177.027C531.726 176.329 523.158 174.921 520.429 175.917C514.996 177.877 497.899 178.823 493.211 177.751C493.211 177.751 491.486 177.373 489.861 177.027C488.299 178.639 486.557 180.151 484.726 181.497C488.157 181.684 491.174 181.258 493.247 181.793L497.554 182.929C498.929 182.522 502.291 182.569 504.201 182.742L509.246 183.121L515.001 183.674C517.774 184.23 520.718 185.428 520.214 190.861C520.02 192.536 519.083 194.905 517.672 196.297C516.896 197.148 513.889 201.51 513.228 202.882L513.013 203.31C511.842 205.807 510.105 208.1 505.048 208.1C504.406 208.091 503.764 208.117 503.124 208.176C502.97 208.585 502.556 209.345 502.556 209.345C501.418 211.933 499.773 215.537 496.631 217.622L495.791 218.226C493.268 220.026 489.066 222.994 482.631 220.658L480.416 219.865C474.808 217.845 466.327 214.813 462.046 212.473L461.445 212.142C457.458 209.96 456.575 209.522 455.127 209.726L454.323 209.851C451.265 210.279 445.501 211.053 441.516 204.446L441.151 203.874C422.256 229.809 393.855 248.373 361.076 254.433L360.932 254.464C359.815 254.668 358.689 254.857 357.562 255.034L357.143 255.096L355.603 255.323C355.004 255.413 354.403 255.493 353.797 255.569L352.699 255.706L350.967 255.893L349.767 256.019C348.986 256.092 348.198 256.158 347.413 256.217L346.667 256.267C345.946 256.317 345.231 256.364 344.505 256.402L343.714 256.445C342.877 256.485 342.044 256.516 341.201 256.542L340.347 256.556C338.55 256.601 336.751 256.599 334.954 256.551L334.149 256.542C333.345 256.516 332.54 256.485 331.736 256.449L330.751 256.395C330.072 256.357 329.393 256.322 328.714 256.27L327.85 256.213C327.047 256.151 326.244 256.083 325.441 256.009L324.253 255.886L322.68 255.716L321.802 255.614C320.976 255.513 320.151 255.398 319.329 255.271L318.333 255.124L316.572 254.85L315.666 254.698C314.958 254.573 314.251 254.45 313.546 254.313L312.019 254.007L311.238 253.849C310.195 253.622 309.144 253.397 308.108 253.146L307.833 253.082L306.203 252.685L305.365 252.469C304.392 252.218 303.425 251.949 302.459 251.679L302.114 251.577C273.372 243.285 248.811 225.185 232.254 201.143L230.075 204.46C226.127 211.067 220.375 210.291 217.277 209.865L216.473 209.74C215.029 209.536 214.116 209.974 210.166 212.156L209.532 212.487C205.266 214.827 196.818 217.859 191.179 219.88L188.959 220.672C182.53 223.008 178.313 220.036 175.838 218.24L174.969 217.636C171.824 215.554 170.196 211.95 169.041 209.359C169.041 209.359 168.663 208.599 168.478 208.19C167.837 208.131 167.193 208.106 166.55 208.114C161.54 208.114 159.753 205.821 158.601 203.325L158.398 202.896C157.718 201.524 154.749 197.163 153.927 196.311C152.538 194.922 151.552 192.551 151.395 190.875C150.875 185.442 153.859 184.245 156.606 183.689L162.364 183.135L167.418 182.756C169.297 182.583 172.662 182.536 174.034 182.943L178.346 181.807C180.398 181.273 183.445 181.698 186.846 181.512C185.038 180.142 183.328 178.648 181.727 177.041C180.083 177.387 178.374 177.766 178.374 177.766C173.672 178.838 156.606 177.891 151.206 175.932C148.461 174.935 139.9 176.341 135.789 177.041L133.324 177.418C130.808 177.804 128.24 177.676 125.775 177.041C125.645 180.134 123.969 182.943 122.533 185.319C121.698 186.691 120.64 188.417 120.512 189.361C119.774 194.654 113.922 197.165 108.347 199.6C106.181 200.516 104.004 201.479 102.459 202.414C96.3444 206.171 89.6453 204.941 84.2902 203.975L81.6967 203.516C77.3828 202.851 70.4778 203.926 65.2363 209.172C57.2214 217.168 49.2468 215.41 45.6144 214.416C44.4123 215.128 41.9347 217.705 40.3658 220.481C37.3369 225.98 31.5512 227.542 27.1923 226.673L26.7545 226.56C24.9656 226.184 21.9769 225.597 19.6886 225.883L13.7301 226.673L13.794 225.632C9.71675 226.295 5.38631 225.535 2.93003 223.706C1.1245 222.362 -1.40513 219.172 1.78945 212.837C2.53012 211.318 2.78332 210.263 2.78332 208.855C2.78332 203.327 5.98027 199.236 8.22358 197.958C10.5757 196.725 12.1233 195.492 12.7528 193.63C13.3704 191.763 14.582 190.198 16.7827 188.966C18.9598 187.721 22.0573 185.57 24.5396 184.623C27.0172 183.691 30.4413 182.728 32.3084 184.623C34.1896 186.455 38.4988 190.198 38.4988 190.198C42.453 187.146 42.0744 183.627 44.1236 177.78C46.6864 170.529 52.8176 172.486 56.7978 172.867L57.2546 172.931C57.2546 172.931 59.4008 173.026 59.4647 173.059C59.576 172.995 60.177 172.711 60.177 172.711L61.1732 172.188C61.1732 172.188 67.6003 168.414 67.6642 168.383C67.6926 168.305 67.6926 168.191 67.6926 168C67.6926 167.543 67.5364 166.611 66.6679 165.221C63.8094 160.796 61.7885 152.031 61.4217 144.655C60.39 144.779 59.3937 144.88 58.4141 144.958C42.8482 146.208 33.5981 142.27 28.1862 137.199Z" fill="#F8EE3F" /> <path d="M66.5069 139.267C66.5069 139.267 65.2102 151.821 70.8658 162.884C70.8658 162.884 75.0566 168.823 70.7049 172.638L62.0416 177.673C62.0416 177.673 60.8774 178.539 57.0131 178.246C57.0131 178.246 51.6722 176.923 49.888 179.282C49.888 179.282 48.338 183.819 46.3976 187.558C46.3976 187.558 42.4529 196.621 35.9241 199.524C35.9241 199.524 30.7205 200.717 29.1421 205.23C29.1421 205.23 27.4644 208.396 24.1042 208.535C24.1042 208.535 21.5982 209.331 19.9394 214.913C19.9394 214.913 19.0354 218.524 19.0827 221.292C19.0827 221.292 23.3564 220.732 26.1416 221.74C26.1416 221.74 32.9898 224.04 36.0519 218.398C36.0519 218.398 41.9678 208.268 46.355 209.792C46.355 209.792 55.1674 212.74 61.3909 206.309C61.3909 206.309 69.9405 196.969 82.0161 198.89C82.0161 198.89 95.6179 201.645 99.8608 198.507C99.8608 198.507 108.439 194.023 111.657 192.91C111.657 192.91 115.595 191.753 116.002 187.442C116.002 187.442 118.396 181.377 120.138 179.356L113.65 179.282C113.65 179.282 107.774 189.164 97.7902 192.144C97.7902 192.144 92.331 194.325 81.3724 192.553C81.3724 192.553 65.6385 188.989 51.819 203.914C51.819 203.914 49.9306 206.642 47.2353 205.551C47.2353 205.551 54.8716 192.529 71.6372 189.444C71.6372 189.444 77.1248 188.277 81.7013 189.02C81.7013 189.02 104.284 189.683 114.755 167.451C114.755 167.451 113.621 148.496 118.621 144.007C118.621 144.007 120.552 143.416 120.167 147.081C120.167 147.081 116.731 166.937 123.184 170.783C123.184 170.783 126.93 173.726 133.861 172.638C133.861 172.638 144.367 170.127 152.907 171.589C152.907 171.589 166.041 174.706 177.326 173.265C177.326 173.265 174.396 168.778 174.971 163.414C174.971 163.414 176.588 159.573 178.441 162.044C178.441 162.044 182.783 176.388 194.65 180.693C194.65 180.693 205.249 184.552 205.076 197.996C205.076 197.996 203.453 199.839 189.399 204.832C189.399 204.832 184.148 206.491 182.456 202.567C182.456 202.567 175.679 188.062 169.78 188.509L158.703 189.408C158.703 189.408 154.924 190.376 157.706 193.405C157.706 193.405 161.5 198.448 163.05 201.458C163.05 201.458 163.502 204.03 167.065 203.483C167.065 203.483 172.009 201.034 174.796 210.23C174.796 210.23 177.347 214.828 181.666 216.297C181.666 216.297 185.705 217.646 189.496 215.519C189.496 215.519 207.79 208.803 210.976 206.422C210.976 206.422 214.932 204.207 218.07 205.272C218.07 205.272 223.558 206.581 225.817 202.25L231.487 193.478C231.487 193.478 232.732 191.318 232.559 188.604C232.559 188.604 233.073 185.915 230.806 183.182C230.806 183.182 228.664 180.918 228.326 179.278L224.284 169.779C224.284 169.779 222.646 167.242 220.848 166.199L215.453 166.594C215.453 166.594 219.166 176.083 221.885 179.95C221.885 179.95 225.564 185.577 225.377 189.155C225.377 189.155 225.134 191.663 224.144 192.709C224.144 192.709 222.9 194.702 222.398 195.67C222.398 195.67 220.763 199.219 219.435 200.007C219.435 200.007 217.14 201.365 216.581 201.42C216.581 201.42 215.583 201.697 216.324 199.908C216.324 199.908 219.348 193.545 219.149 190.142C219.149 190.142 219.736 186.597 217.228 184.522C217.228 184.522 211.349 175.243 210.507 172.47C210.507 172.47 208.664 168.759 207.682 168.123C207.682 168.123 205.628 165.423 208.943 164.159C208.943 164.159 217.201 162.294 218.68 161.282C218.68 161.282 222.651 160.079 225.231 151.809C225.231 151.809 228.782 142.164 228.73 136.21C228.73 136.21 235.692 149.632 224.589 163.281C224.589 163.281 233.376 165.872 237.01 163.281C237.01 163.281 247.955 161.682 250.068 161.099C250.068 161.099 252.82 160.434 251.249 162.387C251.249 162.387 247.948 167.082 247.668 170.158C247.668 170.158 247.455 172.607 245.449 174.041C245.449 174.041 239.228 178.397 238.681 182.569C238.681 182.569 237.351 186.585 240.098 185.624C240.098 185.624 243.823 183.899 245.139 185.636C245.139 185.636 245.524 185.818 244.088 187.43C244.088 187.43 240.352 190.681 240.072 195.045C240.072 195.045 240.763 200.08 242.084 201.699C242.084 201.699 243.766 204.032 246.426 203.292C246.426 203.292 247.131 202.721 248.404 203.105C248.404 203.105 249.72 203.1 253.156 201.912C253.156 201.912 258.364 200.48 260.106 199.865C260.106 199.865 266.736 197.494 270.007 197.66C270.007 197.66 272.134 197.425 274.846 197.967C274.846 197.967 283.138 198.909 288.663 192.802C288.663 192.802 292.868 189.467 294.295 192.704C294.295 192.704 304.383 206.24 320.711 202.674C320.711 202.674 307.719 197.331 304.35 190.054C304.35 190.054 303.9 183.876 297.095 175.295C297.095 175.295 295.014 172.448 297.021 171.708C297.021 171.708 298.183 170.839 300.717 173.383C300.717 173.383 307.182 179.585 309.518 185.262C309.518 185.262 317.547 197.395 329.118 193.317C329.118 193.317 320.034 189.813 315.765 183.277C315.765 183.277 313.127 174.431 304.257 167.851C304.257 167.851 303.91 157.91 299.773 152.323C299.773 152.323 297.665 142.987 297.097 140.805C297.097 140.805 294.865 132.606 294.88 130.341C294.88 130.341 295.618 119.631 288.713 111.295C288.713 111.295 284.087 102.376 276.881 96.1617C276.881 96.1617 271.405 89.3963 267.333 85.2528C267.333 85.2528 261.975 78.9725 250.295 70.7778C250.295 70.7778 245.006 66.9325 241.132 62.7984C241.132 62.7984 220.529 47.9685 205.644 59.8642C205.644 59.8642 195.365 66.8567 186.78 69.022C186.78 69.022 169.136 71.076 161.613 83.3219C161.613 83.3219 160.97 85.5841 153.859 86.4455C153.859 86.4455 138.238 84.5595 126.738 99.9219C126.738 99.9219 121.395 105.137 110.817 106.406C110.817 106.406 93.5663 104.64 82.3355 117.866C82.3355 117.866 53.996 142.587 37.0978 126.555C37.0978 126.555 28.3423 118.266 38.352 103.256C38.352 103.256 44.7009 95.5938 55.5318 87.5884C55.5318 87.5884 64.3181 81.398 60.2905 71.774C60.2905 71.774 58.1632 62.4742 44.9944 62.2281C44.9944 62.2281 28.4701 59.0359 21.7875 50.6921C21.7875 50.6921 14.3264 76.9706 43.6101 76.5328C43.6101 76.5328 51.2416 77.6615 48.577 83.7194C48.577 83.7194 44.8358 88.9018 39.8144 90.7877C39.8144 90.7877 30.9808 94.652 26.9887 107.516C26.9887 107.516 18.0676 130.034 39.8333 138.725C48.2103 141.62 57.8863 140.768 66.5069 139.267ZM24.6011 192.331C25.7819 191.344 27.5117 190.788 29.0475 191.147C32.5118 191.893 30.4152 194.893 30.4152 194.893C29.012 197.518 24.4331 201.945 24.4331 201.945C20.3606 204.995 17.1352 201.363 17.1352 201.363C14.1181 198.388 18.0439 196.95 18.0439 196.95C20.3274 196.022 24.6011 192.331 24.6011 192.331ZM15.8692 206.406C15.8692 206.406 17.1352 207.34 16.4584 209.186C16.4584 209.186 13.226 218.034 13.3774 221.004C13.3774 221.004 6.22393 222.282 5.23243 218.751C5.23243 218.751 5.04076 217.388 6.20737 215.412C6.20737 215.412 7.42132 213.569 7.73604 210.197C7.73604 210.197 7.62956 201.711 13.1266 203.959C14.2175 204.569 15.0789 205.457 15.8692 206.406ZM268.005 188.45C266.746 188.419 266.426 187.958 266.578 186.571C267.423 182.716 270.513 181.053 270.513 181.053C276.311 177.588 277.016 181.057 277.016 181.057C278.078 187.245 273.187 188.024 273.187 188.024C272.21 188.36 268.005 188.45 268.005 188.45ZM285.495 160.815C285.601 157.912 285.847 151.459 282.896 149.154C281.808 148.288 277.501 143.572 277.501 143.572C276.846 142.429 276.342 142.358 276.342 142.358C275.454 142.273 274.309 144.336 274.309 144.336C271.242 150.254 268.182 149.533 268.182 149.533C268.156 148.454 268.878 147.249 268.878 147.249C270.358 144.374 271.825 141.492 273.277 138.602C273.724 137.575 274.136 136.208 274.136 136.208C277.096 131.619 279.886 135.112 279.886 135.112C281.131 137.542 287.769 145.46 287.769 145.46C289.241 147.211 289.383 149.092 289.383 149.092C290.921 159.938 285.495 160.815 285.495 160.815ZM224.36 95.3477C223.453 93.7173 223.827 92.0537 224.738 90.4683C226.792 87.321 228.711 90.7546 228.711 90.7546C235.803 100.641 230.567 115.443 230.567 115.443C229.838 101.82 224.36 95.3477 224.36 95.3477ZM605.138 139.267C605.138 139.267 606.435 151.821 600.779 162.884C600.779 162.884 596.588 168.823 600.94 172.638L609.605 177.673C609.605 177.673 610.767 178.539 614.634 178.246C614.634 178.246 619.972 176.923 621.754 179.282C621.754 179.282 623.307 183.819 625.245 187.558C625.245 187.558 629.197 196.621 635.725 199.524C635.725 199.524 640.927 200.717 642.5 205.23C642.5 205.23 644.183 208.396 647.538 208.535C647.538 208.535 650.049 209.331 651.705 214.913C651.705 214.913 652.612 218.524 652.567 221.292C652.567 221.292 648.291 220.732 645.503 221.74C645.503 221.74 638.657 224.04 635.595 218.398C635.595 218.398 629.679 208.268 625.292 209.792C625.292 209.792 616.482 212.74 610.256 206.309C610.256 206.309 601.709 196.969 589.631 198.89C589.631 198.89 576.034 201.645 571.789 198.507C571.789 198.507 563.211 194.023 559.992 192.91C559.992 192.91 556.052 191.753 555.65 187.442C555.65 187.442 553.253 181.377 551.511 179.356L557.997 179.282C557.997 179.282 563.871 189.164 573.854 192.144C573.854 192.144 579.318 194.325 590.272 192.553C590.272 192.553 606.009 188.989 619.828 203.914C619.828 203.914 621.719 206.642 624.409 205.551C624.409 205.551 616.778 192.529 600.01 189.444C600.01 189.444 594.525 188.277 589.943 189.02C589.943 189.02 567.361 189.683 556.885 167.451C556.885 167.451 558.024 148.496 553.023 144.007C553.023 144.007 551.097 143.416 551.476 147.081C551.476 147.081 554.909 166.937 548.461 170.783C548.461 170.783 544.713 173.726 537.782 172.638C537.782 172.638 527.277 170.127 518.74 171.589C518.74 171.589 505.602 174.706 494.316 173.265C494.316 173.265 497.248 168.778 496.673 163.414C496.673 163.414 495.055 159.573 493.202 162.044C493.202 162.044 488.86 176.388 476.99 180.693C476.99 180.693 466.391 184.552 466.564 197.996C466.564 197.996 468.192 199.839 482.248 204.832C482.248 204.832 487.501 206.491 489.193 202.567C489.193 202.567 495.963 188.062 501.865 188.509L512.947 189.408C512.947 189.408 516.723 190.376 513.938 193.405C513.938 193.405 510.15 198.448 508.595 201.458C508.595 201.458 508.148 204.03 504.582 203.483C504.582 203.483 499.638 201.034 496.846 210.23C496.846 210.23 494.3 214.828 489.981 216.297C489.981 216.297 485.939 217.646 482.151 215.519C482.151 215.519 463.857 208.803 460.674 206.422C460.674 206.422 456.715 204.207 453.58 205.272C453.58 205.272 448.097 206.581 445.837 202.25L440.167 193.478C440.167 193.478 438.918 191.318 439.093 188.604C439.093 188.604 438.577 185.915 440.846 183.182C440.846 183.182 442.99 180.918 443.326 179.278L447.37 169.779C447.37 169.779 449.008 167.242 450.804 166.199L456.204 166.594C456.204 166.594 452.486 176.083 449.765 179.95C449.765 179.95 446.085 185.577 446.272 189.155C446.272 189.155 446.518 191.663 447.505 192.709C447.505 192.709 448.75 194.702 449.254 195.67C449.254 195.67 450.882 199.219 452.214 200.007C452.214 200.007 454.507 201.365 455.068 201.42C455.068 201.42 456.069 201.697 455.319 199.908C455.319 199.908 452.304 193.545 452.496 190.142C452.496 190.142 451.914 186.597 454.417 184.522C454.417 184.522 460.3 175.243 461.147 172.47C461.147 172.47 462.983 168.759 463.968 168.123C463.968 168.123 466.022 165.423 462.707 164.159C462.707 164.159 454.45 162.294 452.971 161.282C452.971 161.282 449.001 160.079 446.419 151.809C446.419 151.809 442.869 142.164 442.919 136.21C442.919 136.21 435.957 149.632 447.063 163.281C447.063 163.281 438.276 165.872 434.642 163.281C434.642 163.281 423.699 161.682 421.579 161.099C421.579 161.099 418.834 160.434 420.401 162.387C420.401 162.387 423.699 167.082 423.983 170.158C423.983 170.158 424.192 172.607 426.203 174.041C426.203 174.041 432.424 178.397 432.966 182.569C432.966 182.569 434.298 186.585 431.549 185.624C431.549 185.624 427.826 183.899 426.511 185.636C426.511 185.636 426.125 185.818 427.561 187.43C427.561 187.43 431.298 190.681 431.575 195.045C431.575 195.045 430.884 200.08 429.561 201.699C429.561 201.699 427.881 204.032 425.221 203.292C425.221 203.292 424.518 202.721 423.238 203.105C423.238 203.105 421.925 203.1 418.489 201.912C418.489 201.912 413.28 200.48 411.539 199.865C411.539 199.865 404.908 197.494 401.636 197.66C401.636 197.66 399.508 197.425 396.796 197.967C396.796 197.967 388.502 198.909 382.977 192.802C382.977 192.802 378.772 189.467 377.35 192.704C377.35 192.704 367.259 206.24 350.929 202.674C350.929 202.674 363.928 197.331 367.295 190.054C367.295 190.054 367.74 183.876 374.545 175.295C374.545 175.295 376.623 172.448 374.616 171.708C374.616 171.708 373.457 170.839 370.92 173.383C370.92 173.383 364.462 179.585 362.124 185.262C362.124 185.262 354.091 197.395 342.524 193.317C342.524 193.317 351.604 189.813 355.873 183.277C355.873 183.277 358.511 174.431 367.387 167.851C367.387 167.851 367.733 157.91 371.871 152.323C371.871 152.323 373.982 142.987 374.545 140.805C374.545 140.805 376.775 132.606 376.76 130.341C376.76 130.341 376.022 119.631 382.929 111.295C382.929 111.295 387.553 102.376 394.766 96.1617C394.766 96.1617 400.239 89.3963 404.31 85.2528C404.31 85.2528 409.669 78.9725 421.35 70.7778C421.35 70.7778 426.636 66.9325 430.507 62.7984C430.507 62.7984 451.109 47.9685 465.998 59.8642C465.998 59.8642 476.278 66.8567 484.868 69.022C484.868 69.022 502.506 71.076 510.024 83.3219C510.024 83.3219 510.668 85.5841 517.779 86.4455C517.779 86.4455 533.399 84.5595 544.902 99.9219C544.902 99.9219 550.245 105.137 560.825 106.406C560.825 106.406 578.067 104.64 589.297 117.866C589.297 117.866 617.639 142.587 634.54 126.555C634.54 126.555 643.291 118.266 633.283 103.256C633.283 103.256 626.937 95.5938 616.108 87.5884C616.108 87.5884 607.315 81.398 611.347 71.774C611.347 71.774 613.474 62.4742 626.643 62.2281C626.643 62.2281 643.167 59.0359 649.848 50.6921C649.848 50.6921 657.314 76.9706 628.025 76.5328C628.025 76.5328 620.391 77.6615 623.058 83.7194C623.058 83.7194 626.799 88.9018 631.821 90.7877C631.821 90.7877 640.654 94.652 644.649 107.516C644.649 107.516 653.572 130.034 631.797 138.725C623.432 141.62 613.758 140.768 605.138 139.267ZM647.046 192.331C645.863 191.344 644.133 190.788 642.602 191.147C639.133 191.893 641.232 194.893 641.232 194.893C642.637 197.518 647.216 201.945 647.216 201.945C651.294 204.995 654.514 201.363 654.514 201.363C657.527 198.388 653.598 196.95 653.598 196.95C651.32 196.022 647.046 192.331 647.046 192.331ZM655.773 206.406C655.773 206.406 654.514 207.34 655.184 209.186C655.184 209.186 658.416 218.034 658.267 221.004C658.267 221.004 665.425 222.282 666.41 218.751C666.41 218.751 666.602 217.388 665.437 215.412C665.437 215.412 664.223 213.569 663.909 210.197C663.909 210.197 664.017 201.711 658.52 203.959C657.427 204.569 656.566 205.457 655.773 206.406ZM403.637 188.45C404.899 188.419 405.223 187.958 405.067 186.571C404.22 182.716 401.134 181.053 401.134 181.053C395.336 177.588 394.629 181.057 394.629 181.057C393.571 187.245 398.46 188.024 398.46 188.024C399.437 188.36 403.637 188.45 403.637 188.45ZM386.152 160.815C386.044 157.912 385.795 151.459 388.751 149.154C389.844 148.288 394.146 143.572 394.146 143.572C394.801 142.429 395.306 142.358 395.306 142.358C396.188 142.273 397.341 144.336 397.341 144.336C400.403 150.254 403.467 149.533 403.467 149.533C403.491 148.454 402.764 147.249 402.764 147.249C401.285 144.374 399.819 141.492 398.368 138.602C398.043 137.818 397.757 137.019 397.509 136.208C394.548 131.619 391.761 135.112 391.761 135.112C390.516 137.542 383.881 145.46 383.881 145.46C383.003 146.49 382.44 147.751 382.26 149.092C380.729 159.938 386.152 160.815 386.152 160.815ZM447.285 95.3477C448.191 93.7173 447.817 92.0537 446.906 90.4683C444.852 87.321 442.938 90.7546 442.938 90.7546C435.844 100.641 441.08 115.443 441.08 115.443C441.805 101.82 447.285 95.3477 447.285 95.3477Z" fill="#CC2729" /> </svg>