<svg width="792" height="599" viewBox="0 0 792 599" fill="none" xmlns="http://www.w3.org/2000/svg"> <path d="M623.5 464L567 598L397 240.5L232.5 598.5L170 464L398.5 0.5L623.5 464Z" fill="#00A0DE" /> <path d="M639 422L560.5 269L653 7.5H791.5L639 422Z" fill="#00A0DE" /> <path d="M149 424L224 269L130.5 15.5H0.5L149 424Z" fill="#00A0DE" /> <path d="M623.5 464L567 598L397 240.5L232.5 598.5L170 464L398.5 0.5L623.5 464Z" stroke="black" /> <path d="M639 422L560.5 269L653 7.5H791.5L639 422Z" stroke="black" /> <path d="M149 424L224 269L130.5 15.5H0.5L149 424Z" stroke="black" /> </svg>